<svg xmlns="http://www.w3.org/2000/svg" xmlns:xlink="http://www.w3.org/1999/xlink" zoomAndPan="magnify" viewBox="0 0 18 18" preserveAspectRatio="xMidYMid meet" version="1.0"><defs><clipPath id="ae04d37988"><path d="M 0 0.117188 L 17.761719 0.117188 L 17.761719 17.140625 L 0 17.140625 Z M 0 0.117188 " clip-rule="nonzero"/></clipPath><clipPath id="f590a8e6cd"><path d="M 3.1875 8 L 11.332031 8 L 11.332031 12 L 3.1875 12 Z M 3.1875 8 " clip-rule="nonzero"/></clipPath><clipPath id="80d39b547d"><path d="M 3.1875 6.6875 L 11 6.6875 L 11 13.351562 L 3.1875 13.351562 Z M 3.1875 6.6875 " clip-rule="nonzero"/></clipPath></defs><g clip-path="url(#ae04d37988)"><path fill="currentColor" d="M 5.457031 0.949219 C 4.777344 2.21875 4.140625 3.515625 3.550781 4.832031 C 2.921875 6.242188 2.339844 7.671875 1.816406 9.125 C 1.335938 10.460938 0.902344 11.816406 0.511719 13.183594 C 0.414062 13.527344 0.316406 13.875 0.222656 14.222656 C 0.175781 14.394531 0.125 14.566406 0.0859375 14.742188 C 0.0625 14.847656 0.0507812 14.957031 0.0351562 15.0625 C 0.0234375 15.160156 0 15.269531 0 15.371094 C 0 15.394531 0 15.414062 0.00390625 15.4375 C 0.015625 15.574219 0.0390625 15.761719 0.0664062 15.894531 C 0.101562 16.066406 0.179688 16.238281 0.265625 16.386719 C 0.425781 16.679688 0.664062 16.90625 0.945312 17.085938 C 1.027344 17.136719 1.117188 17.167969 1.210938 17.207031 C 1.308594 17.246094 1.394531 17.292969 1.496094 17.3125 C 1.667969 17.347656 1.910156 17.394531 2.109375 17.378906 C 2.316406 17.367188 2.519531 17.335938 2.726562 17.296875 C 3.097656 17.222656 3.472656 17.132812 3.84375 17.054688 C 5.355469 16.738281 6.878906 16.472656 8.40625 16.253906 C 8.597656 16.226562 8.785156 16.203125 8.972656 16.175781 C 8.828125 16.195312 8.683594 16.214844 8.539062 16.234375 C 9.550781 16.097656 10.5625 15.984375 11.582031 15.890625 C 12.589844 15.800781 13.605469 15.726562 14.617188 15.679688 C 15.195312 15.652344 15.769531 15.628906 16.347656 15.617188 C 16.492188 15.597656 16.636719 15.578125 16.78125 15.558594 C 16.914062 15.503906 17.042969 15.449219 17.171875 15.390625 C 17.285156 15.308594 17.394531 15.222656 17.503906 15.136719 C 17.664062 14.988281 17.777344 14.8125 17.84375 14.609375 C 17.917969 14.484375 17.953125 14.34375 17.953125 14.199219 C 17.992188 14.050781 17.992188 13.90625 17.953125 13.761719 C 17.953125 13.613281 17.917969 13.476562 17.84375 13.351562 C 17.777344 13.148438 17.664062 12.972656 17.503906 12.824219 C 16.90625 12.054688 16.308594 11.285156 15.707031 10.515625 C 15.085938 9.710938 14.460938 8.90625 13.835938 8.101562 C 13.203125 7.285156 12.570312 6.464844 11.9375 5.648438 C 11.308594 4.839844 10.683594 4.03125 10.058594 3.226562 C 9.457031 2.449219 8.851562 1.675781 8.25 0.898438 C 8.175781 0.804688 8.101562 0.710938 8.03125 0.617188 C 7.824219 0.414062 7.585938 0.277344 7.308594 0.199219 C 7.019531 0.121094 6.726562 0.121094 6.4375 0.199219 C 6.160156 0.277344 5.917969 0.414062 5.714844 0.617188 C 5.511719 0.824219 5.371094 1.0625 5.296875 1.339844 C 4.816406 2.800781 4.449219 4.292969 4.105469 5.789062 C 3.75 7.324219 3.417969 8.867188 3.023438 10.394531 C 2.8125 11.214844 2.585938 12.03125 2.320312 12.839844 C 2.253906 13.054688 2.242188 13.273438 2.289062 13.492188 C 2.300781 13.710938 2.367188 13.910156 2.484375 14.097656 C 2.570312 14.210938 2.65625 14.320312 2.742188 14.429688 C 2.890625 14.589844 3.0625 14.703125 3.265625 14.769531 C 3.394531 14.84375 3.53125 14.878906 3.679688 14.878906 C 3.898438 14.929688 4.113281 14.917969 4.332031 14.851562 C 4.460938 14.796875 4.59375 14.742188 4.722656 14.6875 C 4.96875 14.539062 5.164062 14.34375 5.308594 14.097656 C 5.894531 13.164062 6.367188 12.179688 6.785156 11.160156 C 7.152344 10.269531 7.441406 9.347656 7.648438 8.402344 C 7.796875 7.738281 7.898438 7.0625 7.980469 6.382812 C 7.160156 6.855469 6.339844 7.324219 5.515625 7.796875 C 5.542969 7.8125 5.570312 7.832031 5.59375 7.847656 C 5.484375 7.765625 5.375 7.679688 5.261719 7.59375 C 5.324219 7.640625 5.378906 7.695312 5.425781 7.753906 C 5.339844 7.644531 5.253906 7.535156 5.171875 7.421875 C 5.21875 7.488281 5.257812 7.554688 5.292969 7.628906 C 5.234375 7.5 5.179688 7.371094 5.125 7.238281 C 5.167969 7.339844 5.191406 7.441406 5.207031 7.546875 C 5.1875 7.402344 5.167969 7.257812 5.148438 7.113281 C 5.171875 7.289062 5.167969 7.46875 5.144531 7.644531 C 5.164062 7.5 5.183594 7.355469 5.203125 7.210938 C 5.160156 7.507812 5.078125 7.800781 4.972656 8.082031 C 4.824219 8.46875 4.667969 8.851562 4.515625 9.238281 C 4.195312 10.042969 3.875 10.847656 3.558594 11.652344 C 3.378906 12.105469 3.199219 12.558594 3.019531 13.011719 C 2.953125 13.226562 2.941406 13.445312 2.988281 13.664062 C 3 13.882812 3.066406 14.085938 3.183594 14.273438 C 3.269531 14.382812 3.355469 14.492188 3.441406 14.601562 C 3.644531 14.804688 3.886719 14.945312 4.160156 15.023438 C 4.339844 15.074219 4.554688 15.089844 4.726562 15.109375 C 4.777344 15.117188 4.832031 15.117188 4.882812 15.113281 C 5.042969 15.101562 5.207031 15.074219 5.363281 15.050781 C 5.390625 15.042969 5.414062 15.039062 5.441406 15.035156 C 5.613281 14.992188 5.816406 14.890625 5.960938 14.828125 C 6.050781 14.785156 6.136719 14.734375 6.21875 14.675781 C 6.410156 14.53125 6.613281 14.386719 6.777344 14.207031 C 6.9375 14.027344 7.085938 13.832031 7.226562 13.632812 C 7.289062 13.539062 7.351562 13.441406 7.40625 13.339844 C 7.589844 13 7.730469 12.628906 7.878906 12.269531 C 8.085938 11.761719 8.257812 11.242188 8.394531 10.710938 C 8.558594 10.050781 8.660156 9.375 8.734375 8.699219 C 8.804688 8.085938 8.820312 7.472656 8.789062 6.859375 C 7.773438 7.132812 6.757812 7.410156 5.742188 7.683594 C 5.988281 8.105469 6.207031 8.539062 6.394531 8.984375 C 6.339844 8.855469 6.285156 8.726562 6.230469 8.59375 C 6.621094 9.523438 6.890625 10.503906 7.023438 11.5 C 7.003906 11.355469 6.984375 11.210938 6.964844 11.066406 C 7.035156 11.601562 7.070312 12.140625 7.0625 12.675781 C 8.136719 12.53125 9.207031 12.386719 10.277344 12.242188 C 10.242188 12.039062 10.210938 11.832031 10.183594 11.625 C 10.203125 11.769531 10.222656 11.914062 10.242188 12.058594 C 10.066406 10.746094 10.027344 9.414062 10.125 8.09375 C 10.152344 7.714844 10.191406 7.339844 10.242188 6.964844 C 10.222656 7.109375 10.203125 7.253906 10.183594 7.398438 C 10.214844 7.15625 10.253906 6.910156 10.296875 6.667969 C 9.242188 6.667969 8.191406 6.667969 7.140625 6.667969 C 7.277344 7.144531 7.421875 7.621094 7.578125 8.089844 C 7.777344 8.691406 8.011719 9.28125 8.261719 9.863281 C 8.457031 10.3125 8.675781 10.753906 8.929688 11.171875 C 9.054688 11.375 9.183594 11.574219 9.324219 11.765625 C 9.546875 12.0625 9.773438 12.355469 10.023438 12.628906 C 10.203125 12.824219 10.394531 13.007812 10.601562 13.175781 C 10.914062 13.429688 11.238281 13.679688 11.585938 13.886719 C 11.863281 12.871094 12.136719 11.851562 12.414062 10.835938 C 11.351562 10.851562 10.289062 10.894531 9.226562 10.960938 C 8.167969 11.03125 7.109375 11.125 6.054688 11.246094 C 5.320312 11.328125 4.59375 11.425781 3.863281 11.527344 C 3.652344 11.578125 3.464844 11.675781 3.308594 11.820312 C 3.128906 11.933594 2.988281 12.089844 2.886719 12.277344 C 2.832031 12.410156 2.777344 12.539062 2.722656 12.667969 C 2.652344 12.886719 2.644531 13.105469 2.691406 13.324219 C 2.691406 13.46875 2.730469 13.609375 2.804688 13.734375 C 2.871094 13.9375 2.984375 14.113281 3.144531 14.261719 C 3.253906 14.347656 3.363281 14.433594 3.472656 14.515625 C 3.730469 14.664062 4.003906 14.738281 4.300781 14.742188 C 5.601562 14.769531 6.90625 14.800781 8.207031 14.828125 C 8.578125 14.839844 8.945312 14.847656 9.316406 14.855469 C 9.539062 14.863281 9.75 14.816406 9.945312 14.714844 C 10.148438 14.648438 10.324219 14.535156 10.472656 14.375 C 10.632812 14.226562 10.746094 14.050781 10.808594 13.847656 C 10.914062 13.65625 10.960938 13.445312 10.949219 13.21875 C 10.929688 13.074219 10.914062 12.929688 10.890625 12.785156 C 10.816406 12.507812 10.675781 12.265625 10.472656 12.0625 C 10.363281 11.976562 10.25 11.890625 10.140625 11.808594 C 9.886719 11.660156 9.609375 11.585938 9.316406 11.582031 C 8.011719 11.554688 6.710938 11.523438 5.40625 11.496094 C 5.039062 11.484375 4.667969 11.476562 4.300781 11.46875 C 4.445312 12.539062 4.589844 13.613281 4.734375 14.683594 C 4.886719 14.660156 5.039062 14.640625 5.191406 14.621094 C 5.046875 14.640625 4.902344 14.660156 4.757812 14.679688 C 5.75 14.546875 6.742188 14.433594 7.738281 14.347656 C 8.730469 14.261719 9.722656 14.195312 10.71875 14.15625 C 11.28125 14.132812 11.847656 14.117188 12.414062 14.109375 C 12.558594 14.089844 12.703125 14.070312 12.847656 14.050781 C 13.058594 14 13.246094 13.902344 13.402344 13.757812 C 13.527344 13.683594 13.625 13.585938 13.695312 13.464844 C 13.839844 13.304688 13.9375 13.121094 13.988281 12.90625 C 14.007812 12.761719 14.027344 12.617188 14.046875 12.472656 C 14.027344 12.328125 14.007812 12.183594 13.988281 12.039062 C 13.9375 11.824219 13.839844 11.640625 13.695312 11.480469 C 13.582031 11.304688 13.429688 11.164062 13.238281 11.0625 C 13.046875 10.949219 12.867188 10.824219 12.691406 10.691406 C 12.800781 10.777344 12.914062 10.863281 13.023438 10.945312 C 12.628906 10.640625 12.28125 10.285156 11.976562 9.890625 C 12.0625 10 12.148438 10.113281 12.234375 10.222656 C 11.742188 9.585938 11.367188 8.871094 11.054688 8.128906 C 11.109375 8.261719 11.164062 8.390625 11.21875 8.523438 C 10.925781 7.832031 10.691406 7.121094 10.472656 6.402344 C 10.414062 6.203125 10.351562 6 10.292969 5.800781 C 10.238281 5.667969 10.183594 5.539062 10.128906 5.410156 C 10.027344 5.21875 9.886719 5.066406 9.707031 4.949219 C 9.605469 4.847656 9.484375 4.777344 9.347656 4.738281 C 9.152344 4.636719 8.941406 4.589844 8.714844 4.597656 C 8.570312 4.617188 8.425781 4.636719 8.28125 4.65625 C 8.152344 4.710938 8.019531 4.765625 7.890625 4.820312 C 7.699219 4.925781 7.546875 5.066406 7.429688 5.242188 C 7.285156 5.402344 7.1875 5.585938 7.140625 5.800781 C 6.824219 7.605469 6.710938 9.441406 6.878906 11.269531 C 6.9375 11.886719 7.019531 12.503906 7.121094 13.113281 C 7.171875 13.324219 7.269531 13.511719 7.414062 13.667969 C 7.53125 13.847656 7.683594 13.988281 7.875 14.089844 C 8.003906 14.144531 8.132812 14.199219 8.265625 14.253906 C 8.480469 14.324219 8.699219 14.332031 8.917969 14.285156 C 9.066406 14.285156 9.203125 14.246094 9.332031 14.171875 C 9.53125 14.105469 9.707031 13.996094 9.855469 13.835938 C 9.941406 13.722656 10.027344 13.613281 10.113281 13.503906 C 10.261719 13.25 10.335938 12.972656 10.335938 12.675781 C 10.339844 12.277344 10.324219 11.878906 10.285156 11.480469 C 10.234375 10.949219 10.160156 10.414062 10.054688 9.886719 C 9.972656 9.496094 9.875 9.109375 9.753906 8.726562 C 9.59375 8.21875 9.390625 7.726562 9.179688 7.238281 C 9 6.824219 8.792969 6.421875 8.566406 6.03125 C 8.480469 5.921875 8.394531 5.8125 8.3125 5.703125 C 8.164062 5.542969 7.988281 5.429688 7.785156 5.363281 C 7.65625 5.289062 7.519531 5.25 7.371094 5.25 C 7.15625 5.203125 6.9375 5.210938 6.71875 5.28125 C 6.589844 5.335938 6.457031 5.390625 6.328125 5.445312 C 6.21875 5.53125 6.109375 5.617188 5.996094 5.703125 C 5.835938 5.851562 5.726562 6.023438 5.660156 6.226562 C 5.554688 6.421875 5.507812 6.632812 5.519531 6.859375 C 5.554688 7.5625 5.523438 8.265625 5.429688 8.964844 C 5.449219 8.820312 5.46875 8.675781 5.488281 8.53125 C 5.351562 9.554688 5.078125 10.558594 4.675781 11.511719 C 4.734375 11.382812 4.789062 11.25 4.84375 11.121094 C 4.699219 11.457031 4.550781 11.789062 4.328125 12.082031 C 4.414062 11.972656 4.5 11.859375 4.582031 11.75 C 4.480469 11.882812 4.367188 12.003906 4.238281 12.105469 C 4.347656 12.019531 4.457031 11.933594 4.566406 11.851562 C 4.488281 11.910156 4.402344 11.960938 4.308594 12.003906 C 4.4375 11.945312 4.570312 11.890625 4.699219 11.835938 C 4.632812 11.863281 4.566406 11.882812 4.496094 11.894531 C 4.640625 11.875 4.785156 11.855469 4.929688 11.835938 C 4.859375 11.84375 4.789062 11.84375 4.71875 11.835938 C 4.863281 11.855469 5.007812 11.875 5.152344 11.894531 C 5.109375 11.890625 5.070312 11.878906 5.03125 11.867188 C 5.414062 12.539062 5.792969 13.210938 6.175781 13.882812 C 6.609375 12.78125 7.046875 11.683594 7.480469 10.582031 C 7.695312 10.046875 7.914062 9.511719 8.121094 8.96875 C 8.191406 8.78125 8.253906 8.59375 8.300781 8.398438 C 8.324219 8.296875 8.34375 8.195312 8.355469 8.089844 C 8.390625 7.859375 8.433594 7.621094 8.4375 7.382812 C 8.441406 7.140625 8.398438 6.886719 8.359375 6.652344 C 8.332031 6.480469 8.265625 6.335938 8.199219 6.175781 C 8.15625 6.070312 8.113281 5.957031 8.054688 5.855469 C 7.960938 5.703125 7.839844 5.558594 7.722656 5.421875 C 7.691406 5.382812 7.65625 5.347656 7.621094 5.3125 C 7.5 5.210938 7.371094 5.117188 7.246094 5.023438 C 7.222656 5.007812 7.195312 4.988281 7.167969 4.972656 C 6.679688 4.664062 6.011719 4.683594 5.519531 4.972656 C 5.273438 5.117188 5.078125 5.3125 4.929688 5.558594 C 4.78125 5.816406 4.707031 6.089844 4.707031 6.386719 C 4.699219 6.453125 4.691406 6.523438 4.679688 6.589844 C 4.699219 6.445312 4.71875 6.300781 4.738281 6.15625 C 4.582031 7.304688 4.308594 8.4375 3.921875 9.53125 C 3.8125 9.839844 3.691406 10.144531 3.566406 10.449219 C 3.621094 10.316406 3.675781 10.1875 3.730469 10.058594 C 3.378906 10.886719 2.964844 11.6875 2.484375 12.449219 C 3.480469 12.867188 4.480469 13.289062 5.476562 13.710938 C 5.957031 12.25 6.320312 10.753906 6.667969 9.261719 C 7.023438 7.722656 7.351562 6.183594 7.746094 4.65625 C 7.957031 3.835938 8.1875 3.015625 8.449219 2.210938 C 7.539062 2.453125 6.628906 2.691406 5.714844 2.933594 C 6.316406 3.703125 6.914062 4.472656 7.511719 5.242188 C 8.136719 6.046875 8.761719 6.851562 9.382812 7.65625 C 10.015625 8.472656 10.652344 9.292969 11.285156 10.109375 C 11.910156 10.917969 12.535156 11.726562 13.164062 12.53125 C 13.765625 13.308594 14.367188 14.082031 14.972656 14.855469 C 15.042969 14.949219 15.117188 15.042969 15.191406 15.136719 C 15.578125 14.207031 15.960938 13.277344 16.347656 12.34375 C 14.46875 12.390625 12.59375 12.511719 10.726562 12.703125 C 8.734375 12.910156 6.742188 13.1875 4.773438 13.546875 C 4.257812 13.640625 3.742188 13.742188 3.226562 13.847656 C 2.976562 13.898438 2.722656 13.953125 2.472656 14.007812 C 2.234375 14.058594 1.996094 14.125 1.757812 14.160156 C 1.902344 14.140625 2.046875 14.121094 2.191406 14.101562 C 2.109375 14.109375 2.03125 14.113281 1.953125 14.105469 C 2.097656 14.125 2.242188 14.140625 2.386719 14.160156 C 2.347656 14.15625 2.3125 14.148438 2.277344 14.132812 C 2.410156 14.1875 2.539062 14.242188 2.667969 14.296875 C 2.640625 14.285156 2.617188 14.273438 2.589844 14.253906 C 2.703125 14.339844 2.8125 14.425781 2.921875 14.511719 C 2.902344 14.492188 2.886719 14.476562 2.867188 14.457031 C 2.953125 14.570312 3.039062 14.679688 3.125 14.789062 C 3.109375 14.765625 3.09375 14.742188 3.082031 14.71875 C 3.136719 14.847656 3.191406 14.976562 3.246094 15.109375 C 3.234375 15.074219 3.222656 15.039062 3.21875 15.003906 C 3.238281 15.148438 3.257812 15.292969 3.277344 15.4375 C 3.273438 15.386719 3.273438 15.335938 3.28125 15.28125 C 3.261719 15.425781 3.242188 15.570312 3.222656 15.714844 C 3.246094 15.574219 3.289062 15.4375 3.324219 15.300781 C 3.363281 15.152344 3.402344 15.003906 3.445312 14.855469 C 3.523438 14.566406 3.605469 14.277344 3.6875 13.988281 C 3.851562 13.417969 4.023438 12.84375 4.203125 12.273438 C 4.554688 11.164062 4.9375 10.058594 5.355469 8.96875 C 5.589844 8.355469 5.835938 7.742188 6.09375 7.136719 C 6.035156 7.265625 5.980469 7.394531 5.925781 7.527344 C 6.476562 6.222656 7.078125 4.9375 7.722656 3.679688 C 7.90625 3.316406 8.09375 2.957031 8.285156 2.601562 C 8.40625 2.414062 8.46875 2.210938 8.480469 1.992188 C 8.527344 1.773438 8.519531 1.558594 8.449219 1.339844 C 8.398438 1.128906 8.300781 0.941406 8.15625 0.785156 C 8.042969 0.605469 7.890625 0.464844 7.699219 0.363281 C 7.566406 0.308594 7.4375 0.253906 7.308594 0.199219 C 7.019531 0.121094 6.726562 0.121094 6.4375 0.199219 C 6.308594 0.253906 6.175781 0.308594 6.046875 0.363281 C 5.800781 0.507812 5.605469 0.703125 5.457031 0.949219 Z M 5.457031 0.949219 " fill-opacity="1" fill-rule="nonzero"/></g><g clip-path="url(#f590a8e6cd)"><path fill="#ffffff" d="M 6.597656 10.207031 C 6.597656 11.144531 5.835938 11.898438 4.894531 11.898438 C 3.953125 11.898438 3.191406 11.144531 3.191406 10.207031 C 3.191406 9.273438 3.953125 8.519531 4.894531 8.519531 C 5.835938 8.519531 6.597656 9.273438 6.597656 10.207031 Z M 9.625 8.519531 C 8.683594 8.519531 7.921875 9.273438 7.921875 10.207031 C 7.921875 11.144531 8.683594 11.898438 9.625 11.898438 C 10.566406 11.898438 11.328125 11.144531 11.328125 10.207031 C 11.328125 9.273438 10.566406 8.519531 9.625 8.519531 Z M 9.625 8.519531 " fill-opacity="1" fill-rule="nonzero"/></g><g clip-path="url(#80d39b547d)"><path fill="#000000" d="M 5.726562 9.742188 C 5.726562 10.355469 5.214844 10.863281 4.59375 10.863281 C 3.972656 10.863281 3.460938 10.355469 3.460938 9.742188 C 3.460938 9.125 3.972656 8.617188 4.59375 8.617188 C 5.214844 8.617188 5.726562 9.113281 5.726562 9.742188 Z M 9.34375 8.617188 C 8.722656 8.617188 8.210938 9.125 8.210938 9.742188 C 8.210938 10.355469 8.722656 10.863281 9.34375 10.863281 C 9.964844 10.863281 10.476562 10.355469 10.476562 9.742188 C 10.476562 9.125 9.964844 8.617188 9.34375 8.617188 Z M 8.945312 7.136719 C 9.355469 7.542969 9.875 7.832031 10.445312 7.960938 C 10.558594 7.980469 10.667969 7.941406 10.695312 7.832031 C 10.726562 7.734375 10.667969 7.601562 10.566406 7.582031 C 10.066406 7.472656 9.605469 7.234375 9.242188 6.867188 C 9.054688 6.6875 8.761719 6.957031 8.945312 7.136719 Z M 3.914062 7.535156 C 4.363281 7.296875 4.875 7.195312 5.386719 7.234375 C 5.496094 7.246094 5.585938 7.136719 5.585938 7.035156 C 5.585938 6.925781 5.496094 6.847656 5.386719 6.835938 C 4.804688 6.789062 4.222656 6.917969 3.703125 7.1875 C 3.480469 7.304688 3.683594 7.652344 3.914062 7.535156 Z M 7.238281 12.734375 C 7.238281 13.070312 6.960938 13.351562 6.617188 13.351562 C 6.277344 13.351562 5.996094 13.070312 5.996094 12.734375 C 5.996094 12.394531 6.277344 12.117188 6.617188 12.117188 C 6.960938 12.117188 7.238281 12.394531 7.238281 12.734375 Z M 7.238281 12.734375 " fill-opacity="1" fill-rule="nonzero"/></g></svg>