<svg xmlns="http://www.w3.org/2000/svg" xmlns:xlink="http://www.w3.org/1999/xlink"  zoomAndPan="magnify" viewBox="0 -1 18 18"  preserveAspectRatio="xMidYMid meet" version="1.0"><defs><clipPath id="c31be5aba4"><path d="M 0.15625 0.0078125 L 17.625 0.0078125 L 17.625 15.714844 L 0.15625 15.714844 Z M 0.15625 0.0078125 " clip-rule="nonzero"/></clipPath><clipPath id="a7f6084aa1"><path d="M 5.933594 6 L 11.757812 6 L 11.757812 10 L 5.933594 10 Z M 5.933594 6 " clip-rule="nonzero"/></clipPath><clipPath id="ed47710b5c"><path d="M 6 5.234375 L 11.757812 5.234375 L 11.757812 13.242188 L 6 13.242188 Z M 6 5.234375 " clip-rule="nonzero"/></clipPath><clipPath id="0e01139a1a"><path d="M 9 11 L 11 11 L 11 13.242188 L 9 13.242188 Z M 9 11 " clip-rule="nonzero"/></clipPath></defs><g clip-path="url(#c31be5aba4)"><path fill="currentColor" d="M 16.203125 0.378906 C 14.292969 -0.726562 11.320312 0.714844 9.003906 3.65625 C 6.6875 0.714844 3.714844 -0.726562 1.804688 0.378906 C -0.472656 1.691406 -0.382812 6.109375 2.003906 10.242188 C 3.894531 13.511719 6.804688 15.621094 9.003906 15.710938 C 9.054688 15.714844 8.953125 15.710938 9.003906 15.710938 C 9.058594 15.710938 8.953125 15.714844 9.003906 15.710938 C 11.203125 15.621094 14.113281 13.511719 16.003906 10.242188 C 18.390625 6.109375 18.480469 1.691406 16.203125 0.378906 " fill-opacity="1" fill-rule="nonzero"/></g><g clip-path="url(#a7f6084aa1)"><path fill="#ffffff" d="M 11.757812 8.253906 C 11.757812 9.125 11.101562 9.832031 10.289062 9.832031 C 9.585938 9.832031 9 9.304688 8.851562 8.597656 C 8.695312 9.304688 8.105469 9.832031 7.40625 9.832031 C 6.59375 9.832031 5.933594 9.125 5.933594 8.253906 C 5.933594 7.382812 6.59375 6.675781 7.40625 6.675781 C 8.105469 6.675781 8.695312 7.203125 8.84375 7.910156 C 8.988281 7.203125 9.578125 6.675781 10.277344 6.675781 C 11.09375 6.675781 11.757812 7.382812 11.757812 8.253906 Z M 11.757812 8.253906 " fill-opacity="1" fill-rule="nonzero"/></g><g clip-path="url(#ed47710b5c)"><path fill="#000000" d="M 9.96875 10.445312 L 8.304688 10.445312 C 8.132812 10.445312 7.996094 10.59375 7.996094 10.78125 L 7.996094 12.015625 C 7.996094 12.683594 8.503906 13.230469 9.128906 13.230469 C 9.75 13.230469 10.261719 12.683594 10.261719 12.015625 L 10.261719 10.78125 C 10.269531 10.59375 10.132812 10.445312 9.96875 10.445312 Z M 7.832031 5.292969 C 7.328125 5.246094 6.828125 5.367188 6.386719 5.617188 C 6.1875 5.730469 6.359375 6.054688 6.558594 5.941406 C 6.949219 5.71875 7.390625 5.625 7.832031 5.664062 C 7.925781 5.671875 8.003906 5.570312 8.003906 5.476562 C 8.003906 5.367188 7.925781 5.300781 7.832031 5.292969 Z M 11.371094 5.617188 C 10.929688 5.367188 10.417969 5.246094 9.925781 5.292969 C 9.828125 5.300781 9.75 5.367188 9.75 5.476562 C 9.75 5.570312 9.828125 5.671875 9.925781 5.664062 C 10.367188 5.625 10.808594 5.71875 11.195312 5.941406 C 11.386719 6.054688 11.558594 5.730469 11.371094 5.617188 Z M 10.753906 8.28125 C 10.753906 8.859375 10.3125 9.332031 9.777344 9.332031 C 9.351562 9.332031 8.988281 9.035156 8.851562 8.625 C 8.722656 9.035156 8.359375 9.332031 7.925781 9.332031 C 7.390625 9.332031 6.949219 8.859375 6.949219 8.28125 C 6.949219 7.707031 7.390625 7.234375 7.925781 7.234375 C 8.347656 7.234375 8.714844 7.53125 8.851562 7.9375 C 8.980469 7.53125 9.34375 7.234375 9.777344 7.234375 C 10.3125 7.234375 10.753906 7.695312 10.753906 8.28125 Z M 10.753906 8.28125 " fill-opacity="1" fill-rule="nonzero"/></g><g clip-path="url(#0e01139a1a)"><path fill="#d85041" d="M 10.269531 11.902344 L 10.269531 12.015625 C 10.269531 12.664062 9.792969 13.195312 9.207031 13.230469 C 9.136719 13.101562 9.09375 12.941406 9.09375 12.777344 C 9.09375 12.253906 9.484375 11.839844 9.96875 11.839844 C 10.070312 11.839844 10.175781 11.867188 10.269531 11.902344 Z M 10.269531 11.902344 " fill-opacity="1" fill-rule="nonzero"/></g><path fill="#ffffff" d="M 9.585938 10.492188 C 9.585938 10.722656 9.464844 10.917969 9.320312 10.917969 C 9.25 10.917969 9.1875 10.882812 9.136719 10.808594 C 9.09375 10.871094 9.023438 10.917969 8.957031 10.917969 C 8.808594 10.917969 8.6875 10.734375 8.6875 10.492188 C 8.6875 10.472656 8.6875 10.464844 8.6875 10.445312 L 9.578125 10.445312 C 9.585938 10.464844 9.585938 10.484375 9.585938 10.492188 Z M 9.585938 10.492188 " fill-opacity="1" fill-rule="nonzero"/></svg>