<svg xmlns="http://www.w3.org/2000/svg" xmlns:xlink="http://www.w3.org/1999/xlink" width="55" zoomAndPan="magnify" viewBox="0 0 41.25 41.250001" height="55" preserveAspectRatio="xMidYMid meet" version="1.0"><defs><clipPath id="623da8b482"><path d="M 0 0 L 39.777344 0 L 39.777344 39.777344 L 0 39.777344 Z M 0 0 " clip-rule="nonzero"/></clipPath></defs><g clip-path="url(#623da8b482)"><path fill="currentColor" d="M 35.515625 2.839844 L 31.253906 2.839844 L 31.253906 1.421875 C 31.253906 1.230469 31.21875 1.050781 31.144531 0.878906 C 31.074219 0.703125 30.96875 0.550781 30.835938 0.417969 C 30.703125 0.28125 30.550781 0.179688 30.375 0.109375 C 30.203125 0.0351562 30.019531 0 29.832031 0 C 29.644531 0 29.464844 0.0351562 29.289062 0.109375 C 29.113281 0.179688 28.960938 0.28125 28.828125 0.417969 C 28.695312 0.550781 28.59375 0.703125 28.519531 0.878906 C 28.449219 1.050781 28.410156 1.230469 28.410156 1.421875 L 28.410156 2.839844 L 11.363281 2.839844 L 11.363281 1.421875 C 11.363281 1.230469 11.328125 1.050781 11.257812 0.878906 C 11.183594 0.703125 11.082031 0.550781 10.949219 0.417969 C 10.816406 0.28125 10.660156 0.179688 10.488281 0.109375 C 10.3125 0.0351562 10.132812 0 9.945312 0 C 9.753906 0 9.574219 0.0351562 9.402344 0.109375 C 9.226562 0.179688 9.074219 0.28125 8.941406 0.417969 C 8.804688 0.550781 8.703125 0.703125 8.632812 0.878906 C 8.558594 1.050781 8.523438 1.230469 8.523438 1.421875 L 8.523438 2.839844 L 4.261719 2.839844 C 3.980469 2.84375 3.707031 2.871094 3.429688 2.925781 C 3.15625 2.980469 2.890625 3.0625 2.632812 3.167969 C 2.375 3.277344 2.128906 3.40625 1.898438 3.5625 C 1.664062 3.71875 1.449219 3.894531 1.253906 4.09375 C 1.054688 4.289062 0.878906 4.507812 0.722656 4.738281 C 0.566406 4.96875 0.433594 5.214844 0.328125 5.472656 C 0.21875 5.730469 0.140625 6 0.0859375 6.273438 C 0.0273438 6.546875 0 6.824219 0 7.101562 L 0 35.515625 C 0 35.792969 0.0273438 36.070312 0.0859375 36.34375 C 0.140625 36.621094 0.21875 36.886719 0.328125 37.144531 C 0.433594 37.402344 0.566406 37.648438 0.722656 37.878906 C 0.878906 38.113281 1.054688 38.328125 1.253906 38.523438 C 1.449219 38.722656 1.664062 38.898438 1.898438 39.054688 C 2.128906 39.210938 2.375 39.339844 2.632812 39.449219 C 2.890625 39.554688 3.15625 39.636719 3.429688 39.691406 C 3.707031 39.746094 3.980469 39.777344 4.261719 39.777344 L 35.515625 39.777344 C 35.792969 39.777344 36.070312 39.746094 36.34375 39.691406 C 36.621094 39.636719 36.886719 39.554688 37.144531 39.449219 C 37.402344 39.339844 37.648438 39.210938 37.878906 39.054688 C 38.113281 38.898438 38.328125 38.722656 38.523438 38.523438 C 38.722656 38.328125 38.898438 38.113281 39.054688 37.878906 C 39.210938 37.648438 39.339844 37.402344 39.449219 37.144531 C 39.554688 36.886719 39.636719 36.621094 39.691406 36.34375 C 39.746094 36.070312 39.777344 35.792969 39.777344 35.515625 L 39.777344 7.101562 C 39.777344 6.824219 39.746094 6.546875 39.691406 6.273438 C 39.636719 6 39.554688 5.730469 39.449219 5.472656 C 39.339844 5.214844 39.210938 4.96875 39.054688 4.738281 C 38.898438 4.507812 38.722656 4.289062 38.523438 4.09375 C 38.328125 3.894531 38.113281 3.71875 37.878906 3.5625 C 37.648438 3.40625 37.402344 3.277344 37.144531 3.167969 C 36.886719 3.0625 36.621094 2.980469 36.34375 2.925781 C 36.070312 2.871094 35.792969 2.84375 35.515625 2.839844 Z M 36.9375 11.363281 L 2.839844 11.363281 L 2.839844 7.101562 C 2.839844 6.914062 2.878906 6.734375 2.949219 6.558594 C 3.019531 6.386719 3.125 6.230469 3.257812 6.097656 C 3.390625 5.964844 3.542969 5.863281 3.71875 5.789062 C 3.890625 5.71875 4.074219 5.683594 4.261719 5.683594 L 8.523438 5.683594 L 8.523438 7.101562 C 8.523438 7.292969 8.558594 7.472656 8.632812 7.648438 C 8.703125 7.820312 8.804688 7.972656 8.941406 8.109375 C 9.074219 8.242188 9.226562 8.34375 9.402344 8.414062 C 9.574219 8.488281 9.753906 8.523438 9.945312 8.523438 C 10.132812 8.523438 10.3125 8.488281 10.488281 8.414062 C 10.660156 8.34375 10.816406 8.242188 10.949219 8.109375 C 11.082031 7.972656 11.183594 7.820312 11.257812 7.648438 C 11.328125 7.472656 11.363281 7.292969 11.363281 7.101562 L 11.363281 5.683594 L 28.410156 5.683594 L 28.410156 7.101562 C 28.410156 7.292969 28.449219 7.472656 28.519531 7.648438 C 28.59375 7.820312 28.695312 7.972656 28.828125 8.109375 C 28.960938 8.242188 29.113281 8.34375 29.289062 8.414062 C 29.464844 8.488281 29.644531 8.523438 29.832031 8.523438 C 30.019531 8.523438 30.203125 8.488281 30.375 8.414062 C 30.550781 8.34375 30.703125 8.242188 30.835938 8.109375 C 30.96875 7.972656 31.074219 7.820312 31.144531 7.648438 C 31.21875 7.472656 31.253906 7.292969 31.253906 7.101562 L 31.253906 5.683594 L 35.515625 5.683594 C 35.703125 5.683594 35.882812 5.71875 36.058594 5.789062 C 36.234375 5.863281 36.386719 5.964844 36.519531 6.097656 C 36.652344 6.230469 36.753906 6.386719 36.828125 6.558594 C 36.898438 6.734375 36.9375 6.914062 36.9375 7.101562 Z M 36.9375 11.363281 " fill-opacity="1" fill-rule="nonzero"/><path fill="currentColor" d="M 35.515625 2.839844 L 31.253906 2.839844 L 31.253906 1.421875 C 31.253906 1.230469 31.21875 1.050781 31.144531 0.878906 C 31.074219 0.703125 30.96875 0.550781 30.835938 0.417969 C 30.703125 0.28125 30.550781 0.179688 30.375 0.109375 C 30.203125 0.0351562 30.019531 0 29.832031 0 C 29.644531 0 29.464844 0.0351562 29.289062 0.109375 C 29.113281 0.179688 28.960938 0.28125 28.828125 0.417969 C 28.695312 0.550781 28.59375 0.703125 28.519531 0.878906 C 28.449219 1.050781 28.410156 1.230469 28.410156 1.421875 L 28.410156 2.839844 L 11.363281 2.839844 L 11.363281 1.421875 C 11.363281 1.230469 11.328125 1.050781 11.257812 0.878906 C 11.183594 0.703125 11.082031 0.550781 10.949219 0.417969 C 10.816406 0.28125 10.660156 0.179688 10.488281 0.109375 C 10.3125 0.0351562 10.132812 0 9.945312 0 C 9.753906 0 9.574219 0.0351562 9.402344 0.109375 C 9.226562 0.179688 9.074219 0.28125 8.941406 0.417969 C 8.804688 0.550781 8.703125 0.703125 8.632812 0.878906 C 8.558594 1.050781 8.523438 1.230469 8.523438 1.421875 L 8.523438 2.839844 L 4.261719 2.839844 C 3.980469 2.84375 3.707031 2.871094 3.429688 2.925781 C 3.15625 2.980469 2.890625 3.0625 2.632812 3.167969 C 2.375 3.277344 2.128906 3.40625 1.898438 3.5625 C 1.664062 3.71875 1.449219 3.894531 1.253906 4.09375 C 1.054688 4.289062 0.878906 4.507812 0.722656 4.738281 C 0.566406 4.96875 0.433594 5.214844 0.328125 5.472656 C 0.21875 5.730469 0.140625 6 0.0859375 6.273438 C 0.0273438 6.546875 0 6.824219 0 7.101562 L 0 35.515625 C 0 35.792969 0.0273438 36.070312 0.0859375 36.34375 C 0.140625 36.621094 0.21875 36.886719 0.328125 37.144531 C 0.433594 37.402344 0.566406 37.648438 0.722656 37.878906 C 0.878906 38.113281 1.054688 38.328125 1.253906 38.523438 C 1.449219 38.722656 1.664062 38.898438 1.898438 39.054688 C 2.128906 39.210938 2.375 39.339844 2.632812 39.449219 C 2.890625 39.554688 3.15625 39.636719 3.429688 39.691406 C 3.707031 39.746094 3.980469 39.777344 4.261719 39.777344 L 35.515625 39.777344 C 35.792969 39.777344 36.070312 39.746094 36.34375 39.691406 C 36.621094 39.636719 36.886719 39.554688 37.144531 39.449219 C 37.402344 39.339844 37.648438 39.210938 37.878906 39.054688 C 38.113281 38.898438 38.328125 38.722656 38.523438 38.523438 C 38.722656 38.328125 38.898438 38.113281 39.054688 37.878906 C 39.210938 37.648438 39.339844 37.402344 39.449219 37.144531 C 39.554688 36.886719 39.636719 36.621094 39.691406 36.34375 C 39.746094 36.070312 39.777344 35.792969 39.777344 35.515625 L 39.777344 7.101562 C 39.777344 6.824219 39.746094 6.546875 39.691406 6.273438 C 39.636719 6 39.554688 5.730469 39.449219 5.472656 C 39.339844 5.214844 39.210938 4.96875 39.054688 4.738281 C 38.898438 4.507812 38.722656 4.289062 38.523438 4.09375 C 38.328125 3.894531 38.113281 3.71875 37.878906 3.5625 C 37.648438 3.40625 37.402344 3.277344 37.144531 3.167969 C 36.886719 3.0625 36.621094 2.980469 36.34375 2.925781 C 36.070312 2.871094 35.792969 2.84375 35.515625 2.839844 Z M 36.9375 11.363281 L 2.839844 11.363281 L 2.839844 7.101562 C 2.839844 6.914062 2.878906 6.734375 2.949219 6.558594 C 3.019531 6.386719 3.125 6.230469 3.257812 6.097656 C 3.390625 5.964844 3.542969 5.863281 3.71875 5.789062 C 3.890625 5.71875 4.074219 5.683594 4.261719 5.683594 L 8.523438 5.683594 L 8.523438 7.101562 C 8.523438 7.292969 8.558594 7.472656 8.632812 7.648438 C 8.703125 7.820312 8.804688 7.972656 8.941406 8.109375 C 9.074219 8.242188 9.226562 8.34375 9.402344 8.414062 C 9.574219 8.488281 9.753906 8.523438 9.945312 8.523438 C 10.132812 8.523438 10.3125 8.488281 10.488281 8.414062 C 10.660156 8.34375 10.816406 8.242188 10.949219 8.109375 C 11.082031 7.972656 11.183594 7.820312 11.257812 7.648438 C 11.328125 7.472656 11.363281 7.292969 11.363281 7.101562 L 11.363281 5.683594 L 28.410156 5.683594 L 28.410156 7.101562 C 28.410156 7.292969 28.449219 7.472656 28.519531 7.648438 C 28.59375 7.820312 28.695312 7.972656 28.828125 8.109375 C 28.960938 8.242188 29.113281 8.34375 29.289062 8.414062 C 29.464844 8.488281 29.644531 8.523438 29.832031 8.523438 C 30.019531 8.523438 30.203125 8.488281 30.375 8.414062 C 30.550781 8.34375 30.703125 8.242188 30.835938 8.109375 C 30.96875 7.972656 31.074219 7.820312 31.144531 7.648438 C 31.21875 7.472656 31.253906 7.292969 31.253906 7.101562 L 31.253906 5.683594 L 35.515625 5.683594 C 35.703125 5.683594 35.882812 5.71875 36.058594 5.789062 C 36.234375 5.863281 36.386719 5.964844 36.519531 6.097656 C 36.652344 6.230469 36.753906 6.386719 36.828125 6.558594 C 36.898438 6.734375 36.9375 6.914062 36.9375 7.101562 Z M 36.9375 11.363281 " fill-opacity="1" fill-rule="nonzero"/></g></svg>