<svg width="49" height="49" viewBox="0 0 49 49" fill="none" xmlns="http://www.w3.org/2000/svg">
<rect x="0.6125" y="0.6125" width="49" height="49" rx="23.9875" fill="white"/>
<g clip-path="url(#clip0_710_6217)">
<path d="M36.22 24.7789C36.22 23.9634 36.1422 23.1825 35.9868 22.4361H24.5V27.1494H31.5639C31.2887 28.6244 30.4098 29.8206 29.2136 30.6361V33.7572H33.1898C35.6318 31.6353 36.22 28.6714 36.22 24.7789Z" fill="#4285F4"/>
<path d="M24.5 36.75C27.9575 36.75 30.9744 35.752 33.1897 33.7571L29.2136 30.636C28.1907 31.4403 26.9505 31.9761 25.4875 31.9761C22.0692 31.9761 19.2039 29.9575 18.2031 26.8649H13.5944V29.9832C15.8097 34.0512 19.8457 36.75 24.5 36.75Z" fill="#34A853"/>
<path d="M18.2031 26.8649C17.9678 26.1607 17.8286 25.4011 17.8286 24.6136C17.8286 23.8261 17.9678 23.0665 18.2031 22.3623V19.244H13.5944C12.6572 21.0138 12.25 22.9763 12.25 24.9999C12.25 27.0235 12.6572 28.986 13.5944 30.7558L18.2031 26.8649Z" fill="#FBBC04"/>
<path d="M24.5 17.0239C26.3687 17.0239 28.0713 17.7517 29.2866 18.8898L32.7858 15.3906C30.7672 13.0611 28.0011 11.75 24.5 11.75C19.8457 11.75 15.8097 14.4488 13.5944 18.5168L18.2031 22.3623C19.2039 19.2697 22.0692 17.0239 24.5 17.0239Z" fill="#E94235"/>
</g>
<rect x="0.6125" y="0.6125" width="48" height="48" rx="23.8875" stroke="#747775"/>
<defs>
<clipPath id="clip0_710_6217">
<rect width="24.5" height="24.5" fill="white" transform="translate(12.25 12.25)"/>
</clipPath>
</defs>
</svg>
