<svg xmlns="http://www.w3.org/2000/svg" xmlns:xlink="http://www.w3.org/1999/xlink" width="63" zoomAndPan="magnify" viewBox="0 0 47.25 41.25" height="55" preserveAspectRatio="xMidYMid meet" version="1.0"><defs><clipPath id="ba4e2f8b0d"><path d="M 0.0546875 0 L 46.460938 0 L 46.460938 39.777344 L 0.0546875 39.777344 Z M 0.0546875 0 " clip-rule="nonzero"/></clipPath></defs><g clip-path="url(#ba4e2f8b0d)"><path fill="currentColor" d="M 23.257812 0 C 22.671875 0 22.171875 0.207031 21.757812 0.621094 L 0.515625 19.046875 C 0.230469 19.253906 0.0859375 19.535156 0.0859375 19.886719 C 0.0859375 20.027344 0.113281 20.160156 0.167969 20.289062 C 0.222656 20.417969 0.296875 20.53125 0.394531 20.628906 C 0.496094 20.726562 0.609375 20.800781 0.738281 20.855469 C 0.867188 20.910156 1 20.933594 1.140625 20.933594 L 6.40625 20.933594 L 6.40625 37.683594 C 6.40625 38.839844 7.351562 39.777344 8.511719 39.777344 L 16.9375 39.777344 C 18.101562 39.777344 19.042969 38.839844 19.042969 37.683594 L 19.042969 25.121094 L 27.46875 25.121094 L 27.46875 37.683594 C 27.46875 38.839844 28.414062 39.777344 29.574219 39.777344 L 38 39.777344 C 39.164062 39.777344 40.105469 38.839844 40.105469 37.683594 L 40.105469 20.933594 L 45.371094 20.933594 C 45.511719 20.933594 45.648438 20.910156 45.777344 20.855469 C 45.90625 20.800781 46.019531 20.726562 46.117188 20.628906 C 46.214844 20.53125 46.292969 20.417969 46.347656 20.289062 C 46.398438 20.160156 46.425781 20.027344 46.425781 19.886719 C 46.425781 19.535156 46.285156 19.253906 46 19.046875 L 24.765625 0.632812 C 24.761719 0.628906 24.757812 0.625 24.753906 0.621094 C 24.34375 0.207031 23.84375 0 23.257812 0 Z M 23.257812 0 " fill-opacity="1" fill-rule="nonzero"/><path fill="currentColor" d="M 23.257812 0 C 22.671875 0 22.171875 0.207031 21.757812 0.621094 L 0.515625 19.046875 C 0.230469 19.253906 0.0859375 19.535156 0.0859375 19.886719 C 0.0859375 20.027344 0.113281 20.160156 0.167969 20.289062 C 0.222656 20.417969 0.296875 20.53125 0.394531 20.628906 C 0.496094 20.726562 0.609375 20.800781 0.738281 20.855469 C 0.867188 20.910156 1 20.933594 1.140625 20.933594 L 6.40625 20.933594 L 6.40625 37.683594 C 6.40625 38.839844 7.351562 39.777344 8.511719 39.777344 L 16.9375 39.777344 C 18.101562 39.777344 19.042969 38.839844 19.042969 37.683594 L 19.042969 25.121094 L 27.46875 25.121094 L 27.46875 37.683594 C 27.46875 38.839844 28.414062 39.777344 29.574219 39.777344 L 38 39.777344 C 39.164062 39.777344 40.105469 38.839844 40.105469 37.683594 L 40.105469 20.933594 L 45.371094 20.933594 C 45.511719 20.933594 45.648438 20.910156 45.777344 20.855469 C 45.90625 20.800781 46.019531 20.726562 46.117188 20.628906 C 46.214844 20.53125 46.292969 20.417969 46.347656 20.289062 C 46.398438 20.160156 46.425781 20.027344 46.425781 19.886719 C 46.425781 19.535156 46.285156 19.253906 46 19.046875 L 24.765625 0.632812 C 24.761719 0.628906 24.757812 0.625 24.753906 0.621094 C 24.34375 0.207031 23.84375 0 23.257812 0 Z M 23.257812 0 " fill-opacity="1" fill-rule="nonzero"/></g></svg>