<svg xmlns="http://www.w3.org/2000/svg" xmlns:xlink="http://www.w3.org/1999/xlink" width="103" zoomAndPan="magnify" viewBox="0 0 77.25 44.999999" height="60" preserveAspectRatio="xMidYMid meet" version="1.0"><defs><g/><clipPath id="9a5a6e2385"><path d="M 0 0.214844 L 29.710938 0.214844 L 29.710938 43.296875 L 0 43.296875 Z M 0 0.214844 " clip-rule="nonzero"/></clipPath><clipPath id="b94d012955"><path d="M 0 0.214844 L 29.59375 0.214844 L 29.59375 43.296875 L 0 43.296875 Z M 0 0.214844 " clip-rule="nonzero"/></clipPath><clipPath id="343eb22b84"><rect x="0" width="30" y="0" height="44"/></clipPath><clipPath id="866700d686"><path d="M 4.363281 20.761719 L 26.644531 20.761719 L 26.644531 34.871094 L 4.363281 34.871094 Z M 4.363281 20.761719 " clip-rule="nonzero"/></clipPath><clipPath id="23302c0f82"><path d="M 0.363281 0.761719 L 22.332031 0.761719 L 22.332031 14.871094 L 0.363281 14.871094 Z M 0.363281 0.761719 " clip-rule="nonzero"/></clipPath><clipPath id="f93d3e09e7"><rect x="0" width="23" y="0" height="15"/></clipPath></defs><g clip-path="url(#9a5a6e2385)"><g transform="matrix(1, 0, 0, 1, 0, 0.000000000000005274)"><g clip-path="url(#343eb22b84)"><g clip-path="url(#b94d012955)"><path fill="#5ec9ea" d="M -0.113281 28.898438 C -0.113281 36.84375 6.535156 43.285156 14.738281 43.285156 C 22.945312 43.285156 29.59375 36.84375 29.59375 28.898438 C 29.59375 18.910156 20.730469 15.628906 17.742188 0.230469 C 5.160156 9.878906 -0.113281 20.699219 -0.113281 28.898438 Z M -0.113281 28.898438 " fill-opacity="1" fill-rule="nonzero"/></g></g></g></g><g clip-path="url(#866700d686)"><g transform="matrix(1, 0, 0, 1, 4, 20)"><g clip-path="url(#f93d3e09e7)"><path fill="#ffffff" d="M 12.929688 7.949219 C 12.929688 10.035156 14.683594 11.71875 16.847656 11.71875 C 19.015625 11.71875 20.765625 10.035156 20.765625 7.949219 C 20.765625 5.867188 19.015625 4.179688 16.847656 4.179688 C 14.683594 4.179688 12.929688 5.867188 12.929688 7.949219 Z M 5.972656 4.179688 C 8.136719 4.179688 9.890625 5.867188 9.890625 7.949219 C 9.890625 10.035156 8.136719 11.71875 5.972656 11.71875 C 3.804688 11.71875 2.054688 10.035156 2.054688 7.949219 C 2.054688 5.867188 3.804688 4.179688 5.972656 4.179688 Z M 5.972656 4.179688 " fill-opacity="1" fill-rule="nonzero"/><g clip-path="url(#23302c0f82)"><path fill="#000000" d="M 14.933594 6.90625 C 14.933594 8.28125 16.109375 9.414062 17.539062 9.414062 C 18.96875 9.414062 20.144531 8.28125 20.144531 6.90625 C 20.144531 5.53125 18.96875 4.402344 17.539062 4.402344 C 16.109375 4.402344 14.933594 5.511719 14.933594 6.90625 Z M 6.617188 4.402344 C 8.046875 4.402344 9.21875 5.53125 9.21875 6.90625 C 9.21875 8.28125 8.066406 9.414062 6.617188 9.414062 C 5.1875 9.414062 4.011719 8.28125 4.011719 6.90625 C 4.011719 5.53125 5.1875 4.402344 6.617188 4.402344 Z M 1.132812 10.300781 C 3.320312 11.960938 5.949219 13.070312 8.691406 13.515625 C 11.5 13.980469 14.40625 13.691406 17.078125 12.761719 C 18.597656 12.230469 20.050781 11.476562 21.339844 10.542969 C 21.824219 10.210938 22.332031 10.941406 21.871094 11.277344 C 19.429688 13.050781 16.503906 14.15625 13.460938 14.511719 C 10.535156 14.867188 7.539062 14.445312 4.820312 13.382812 C 3.273438 12.785156 1.824219 11.960938 0.53125 10.964844 C 0.0507812 10.609375 0.671875 9.945312 1.132812 10.300781 Z M 4.011719 1.652344 C 5.1875 1.054688 6.546875 0.765625 7.859375 0.875 C 8.113281 0.898438 8.320312 1.074219 8.320312 1.320312 C 8.320312 1.542969 8.113281 1.785156 7.859375 1.761719 C 6.6875 1.675781 5.511719 1.894531 4.472656 2.429688 C 3.945312 2.695312 3.484375 1.917969 4.011719 1.652344 Z M 19.105469 2.429688 C 18.070312 1.894531 16.894531 1.675781 15.71875 1.761719 C 15.464844 1.785156 15.257812 1.542969 15.257812 1.320312 C 15.257812 1.074219 15.464844 0.898438 15.71875 0.875 C 17.054688 0.765625 18.390625 1.054688 19.566406 1.652344 C 20.097656 1.917969 19.636719 2.695312 19.105469 2.429688 Z M 19.105469 2.429688 " fill-opacity="1" fill-rule="nonzero"/></g></g></g></g><g fill="#88b789" fill-opacity="1"><g transform="translate(33.876346, 17.4064)"><g><path d="M 13.765625 1.890625 L 11.03125 1.890625 L 11.03125 -5.4375 L 10.84375 -5.4375 L 10.4375 -4.296875 L 8.375 0.375 L 6.46875 0.375 L 4.3125 -4.6875 L 4.03125 -5.453125 L 3.78125 -5.453125 L 3.796875 -4.640625 L 3.796875 1.890625 L 1.03125 1.890625 L 1.03125 -11.015625 L 4.21875 -11.015625 L 7.296875 -3.46875 L 7.515625 -3.46875 L 10.59375 -11.015625 L 13.765625 -11.015625 Z M 13.765625 1.890625 "/></g></g></g><g fill="#88b789" fill-opacity="1"><g transform="translate(48.725507, 17.4064)"><g><path d="M 3.609375 -8.9375 L 0.859375 -8.9375 L 0.859375 -11.484375 L 3.609375 -11.484375 Z M 3.609375 1.890625 L 0.890625 1.890625 L 0.890625 -7.515625 L 3.609375 -7.515625 Z M 3.609375 1.890625 "/></g></g></g><g fill="#88b789" fill-opacity="1"><g transform="translate(53.221419, 17.4064)"><g><path d="M 8.84375 1.890625 L 6.09375 1.890625 L 6.078125 -5.53125 L 3.390625 -5.546875 L 3.390625 1.890625 L 0.78125 1.890625 L 0.78125 -7.671875 L 5.984375 -7.671875 C 6.523438 -7.671875 7.007812 -7.585938 7.4375 -7.421875 C 7.875 -7.253906 8.21875 -7.007812 8.46875 -6.6875 C 8.726562 -6.363281 8.859375 -5.96875 8.859375 -5.5 Z M 8.84375 1.890625 "/></g></g></g><g fill="#88b789" fill-opacity="1"><g transform="translate(62.909778, 17.4064)"><g><path d="M 8.859375 1.890625 L 3.203125 1.859375 C 2.785156 1.910156 2.394531 1.851562 2.03125 1.6875 C 1.664062 1.519531 1.367188 1.253906 1.140625 0.890625 C 0.910156 0.523438 0.796875 0.078125 0.796875 -0.453125 L 0.796875 -5.546875 C 0.796875 -5.941406 0.921875 -6.304688 1.171875 -6.640625 C 1.429688 -6.972656 1.78125 -7.238281 2.21875 -7.4375 C 2.65625 -7.632812 3.132812 -7.734375 3.65625 -7.734375 L 6.28125 -7.734375 L 6.28125 -10.984375 L 8.859375 -10.984375 Z M 6.25 -0.234375 L 6.25 -5.59375 L 3.578125 -5.59375 L 3.578125 -0.25 Z M 6.25 -0.234375 "/></g></g></g><g fill="#88b789" fill-opacity="1"><g transform="translate(35.106589, 35.976111)"><g><path d="M 7.796875 1.890625 L 1.03125 1.890625 L 1.03125 -11.015625 L 7.796875 -11.015625 C 8.703125 -11.015625 9.410156 -10.859375 9.921875 -10.546875 C 10.441406 -10.242188 10.703125 -9.71875 10.703125 -8.96875 L 10.703125 -0.1875 C 10.703125 0.351562 10.578125 0.769531 10.328125 1.0625 C 10.078125 1.363281 9.734375 1.578125 9.296875 1.703125 C 8.859375 1.828125 8.359375 1.890625 7.796875 1.890625 Z M 7.921875 -0.234375 L 7.890625 -8.875 L 3.796875 -8.890625 L 3.828125 -0.25 Z M 7.921875 -0.234375 "/></g></g></g><g fill="#88b789" fill-opacity="1"><g transform="translate(46.805451, 35.976111)"><g><path d="M 3.5625 1.78125 L 0.78125 1.78125 L 0.78125 -5.71875 C 0.78125 -6.445312 0.9375 -6.960938 1.25 -7.265625 C 1.570312 -7.578125 2.171875 -7.734375 3.046875 -7.734375 L 6.0625 -7.734375 L 6.0625 -5.59375 L 3.5625 -5.59375 Z M 3.5625 1.78125 "/></g></g></g><g fill="#88b789" fill-opacity="1"><g transform="translate(53.10605, 35.976111)"><g><path d="M 6.3125 2.015625 L 3.609375 2.015625 C 3.046875 2.015625 2.546875 1.953125 2.109375 1.828125 C 1.671875 1.710938 1.328125 1.507812 1.078125 1.21875 C 0.828125 0.925781 0.703125 0.507812 0.703125 -0.03125 L 0.703125 -5.84375 C 0.703125 -6.59375 0.960938 -7.117188 1.484375 -7.421875 C 2.003906 -7.722656 2.710938 -7.875 3.609375 -7.875 L 6.3125 -7.875 C 7.21875 -7.875 7.921875 -7.722656 8.421875 -7.421875 C 8.929688 -7.117188 9.1875 -6.59375 9.1875 -5.84375 L 9.1875 -0.03125 C 9.1875 0.507812 9.0625 0.925781 8.8125 1.21875 C 8.5625 1.507812 8.21875 1.710938 7.78125 1.828125 C 7.351562 1.953125 6.863281 2.015625 6.3125 2.015625 Z M 6.59375 0.0625 L 6.5625 -5.890625 L 3.328125 -5.890625 L 3.359375 0.046875 Z M 6.59375 0.0625 "/></g></g></g><g fill="#88b789" fill-opacity="1"><g transform="translate(62.984379, 35.976111)"><g><path d="M 6.0625 0.828125 L 3.546875 0.828125 L 3.546875 2.90625 L 0.9375 2.90625 L 0.9375 -7.734375 L 6.0625 -7.734375 C 6.570312 -7.734375 7.039062 -7.660156 7.46875 -7.515625 C 7.90625 -7.378906 8.253906 -7.144531 8.515625 -6.8125 C 8.785156 -6.488281 8.921875 -6.023438 8.921875 -5.421875 L 8.9375 -1.375 C 8.9375 -0.976562 8.804688 -0.609375 8.546875 -0.265625 C 8.296875 0.0664062 7.953125 0.332031 7.515625 0.53125 C 7.085938 0.726562 6.601562 0.828125 6.0625 0.828125 Z M 6.1875 -1.328125 L 6.15625 -5.609375 L 3.546875 -5.625 L 3.578125 -1.328125 Z M 6.1875 -1.328125 "/></g></g></g></svg>