<svg xmlns="http://www.w3.org/2000/svg" xmlns:xlink="http://www.w3.org/1999/xlink" width="148" zoomAndPan="magnify" viewBox="0 0 110.88 31.5" height="42" preserveAspectRatio="xMidYMid meet" version="1.0"><defs><g/></defs><g fill="#88b789" fill-opacity="1"><g transform="translate(4.791791, 20.634023)"><g><path d="M 16.953125 2.328125 L 13.578125 2.328125 L 13.578125 -6.6875 L 13.34375 -6.6875 L 12.859375 -5.28125 L 10.328125 0.46875 L 7.96875 0.46875 L 5.3125 -5.78125 L 4.953125 -6.71875 L 4.671875 -6.71875 L 4.6875 -5.71875 L 4.6875 2.328125 L 1.265625 2.328125 L 1.265625 -13.5625 L 5.1875 -13.5625 L 9 -4.28125 L 9.25 -4.28125 L 13.0625 -13.5625 L 16.953125 -13.5625 Z M 16.953125 2.328125 "/></g></g></g><g fill="#88b789" fill-opacity="1"><g transform="translate(23.089079, 20.634023)"><g><path d="M 4.453125 -11 L 1.046875 -11 L 1.046875 -14.15625 L 4.453125 -14.15625 Z M 4.453125 2.328125 L 1.09375 2.328125 L 1.09375 -9.25 L 4.453125 -9.25 Z M 4.453125 2.328125 "/></g></g></g><g fill="#88b789" fill-opacity="1"><g transform="translate(28.628982, 20.634023)"><g><path d="M 10.890625 2.328125 L 7.515625 2.328125 L 7.5 -6.8125 L 4.171875 -6.828125 L 4.171875 2.328125 L 0.953125 2.328125 L 0.953125 -9.453125 L 7.375 -9.453125 C 8.039062 -9.453125 8.640625 -9.347656 9.171875 -9.140625 C 9.703125 -8.941406 10.125 -8.644531 10.4375 -8.25 C 10.75 -7.851562 10.90625 -7.359375 10.90625 -6.765625 Z M 10.890625 2.328125 "/></g></g></g><g fill="#88b789" fill-opacity="1"><g transform="translate(40.56709, 20.634023)"><g><path d="M 10.90625 2.328125 L 3.9375 2.28125 C 3.4375 2.34375 2.957031 2.273438 2.5 2.078125 C 2.050781 1.878906 1.679688 1.550781 1.390625 1.09375 C 1.109375 0.644531 0.96875 0.09375 0.96875 -0.5625 L 0.96875 -6.828125 C 0.96875 -7.328125 1.128906 -7.78125 1.453125 -8.1875 C 1.773438 -8.59375 2.203125 -8.914062 2.734375 -9.15625 C 3.265625 -9.40625 3.859375 -9.53125 4.515625 -9.53125 L 7.734375 -9.53125 L 7.734375 -13.53125 L 10.90625 -13.53125 Z M 7.6875 -0.296875 L 7.6875 -6.890625 L 4.40625 -6.890625 L 4.40625 -0.3125 Z M 7.6875 -0.296875 "/></g></g></g><g fill="#88b789" fill-opacity="1"><g transform="translate(52.680755, 20.634023)"><g/></g></g><g fill="#88b789" fill-opacity="1"><g transform="translate(59.235006, 20.634023)"><g><path d="M 9.609375 2.328125 L 1.265625 2.328125 L 1.265625 -13.5625 L 9.609375 -13.5625 C 10.722656 -13.5625 11.597656 -13.375 12.234375 -13 C 12.867188 -12.625 13.1875 -11.972656 13.1875 -11.046875 L 13.1875 -0.234375 C 13.1875 0.429688 13.03125 0.945312 12.71875 1.3125 C 12.40625 1.6875 11.976562 1.945312 11.4375 2.09375 C 10.90625 2.25 10.296875 2.328125 9.609375 2.328125 Z M 9.75 -0.296875 L 9.71875 -10.921875 L 4.6875 -10.953125 L 4.71875 -0.3125 Z M 9.75 -0.296875 "/></g></g></g><g fill="#88b789" fill-opacity="1"><g transform="translate(73.650461, 20.634023)"><g><path d="M 4.390625 2.1875 L 0.953125 2.1875 L 0.953125 -7.046875 C 0.953125 -7.941406 1.144531 -8.578125 1.53125 -8.953125 C 1.925781 -9.335938 2.664062 -9.53125 3.75 -9.53125 L 7.46875 -9.53125 L 7.46875 -6.890625 L 4.390625 -6.890625 Z M 4.390625 2.1875 "/></g></g></g><g fill="#88b789" fill-opacity="1"><g transform="translate(81.41413, 20.634023)"><g><path d="M 7.765625 2.484375 L 4.453125 2.484375 C 3.765625 2.484375 3.148438 2.410156 2.609375 2.265625 C 2.066406 2.117188 1.640625 1.863281 1.328125 1.5 C 1.015625 1.132812 0.859375 0.625 0.859375 -0.03125 L 0.859375 -7.203125 C 0.859375 -8.128906 1.179688 -8.773438 1.828125 -9.140625 C 2.472656 -9.515625 3.347656 -9.703125 4.453125 -9.703125 L 7.765625 -9.703125 C 8.890625 -9.703125 9.757812 -9.515625 10.375 -9.140625 C 11 -8.773438 11.3125 -8.128906 11.3125 -7.203125 L 11.3125 -0.03125 C 11.3125 0.625 11.160156 1.132812 10.859375 1.5 C 10.554688 1.863281 10.132812 2.117188 9.59375 2.265625 C 9.0625 2.410156 8.453125 2.484375 7.765625 2.484375 Z M 8.125 0.078125 L 8.078125 -7.265625 L 4.09375 -7.265625 L 4.140625 0.0625 Z M 8.125 0.078125 "/></g></g></g><g fill="#88b789" fill-opacity="1"><g transform="translate(93.586318, 20.634023)"><g><path d="M 7.46875 1.015625 L 4.375 1.015625 L 4.375 3.578125 L 1.15625 3.578125 L 1.15625 -9.53125 L 7.46875 -9.53125 C 8.09375 -9.53125 8.671875 -9.441406 9.203125 -9.265625 C 9.742188 -9.097656 10.175781 -8.804688 10.5 -8.390625 C 10.820312 -7.984375 10.984375 -7.410156 10.984375 -6.671875 L 11 -1.703125 C 11 -1.203125 10.84375 -0.742188 10.53125 -0.328125 C 10.21875 0.0859375 9.796875 0.414062 9.265625 0.65625 C 8.734375 0.894531 8.132812 1.015625 7.46875 1.015625 Z M 7.625 -1.640625 L 7.59375 -6.90625 L 4.375 -6.921875 L 4.40625 -1.640625 Z M 7.625 -1.640625 "/></g></g></g><g fill="#88b789" fill-opacity="1"><g transform="translate(4.791791, 20.634023)"><g><path d="M 16.953125 2.328125 L 13.578125 2.328125 L 13.578125 -6.6875 L 13.34375 -6.6875 L 12.859375 -5.28125 L 10.328125 0.46875 L 7.96875 0.46875 L 5.3125 -5.78125 L 4.953125 -6.71875 L 4.671875 -6.71875 L 4.6875 -5.71875 L 4.6875 2.328125 L 1.265625 2.328125 L 1.265625 -13.5625 L 5.1875 -13.5625 L 9 -4.28125 L 9.25 -4.28125 L 13.0625 -13.5625 L 16.953125 -13.5625 Z M 16.953125 2.328125 "/></g></g></g><g fill="#88b789" fill-opacity="1"><g transform="translate(23.089079, 20.634023)"><g><path d="M 4.453125 -11 L 1.046875 -11 L 1.046875 -14.15625 L 4.453125 -14.15625 Z M 4.453125 2.328125 L 1.09375 2.328125 L 1.09375 -9.25 L 4.453125 -9.25 Z M 4.453125 2.328125 "/></g></g></g><g fill="#88b789" fill-opacity="1"><g transform="translate(28.628982, 20.634023)"><g><path d="M 10.890625 2.328125 L 7.515625 2.328125 L 7.5 -6.8125 L 4.171875 -6.828125 L 4.171875 2.328125 L 0.953125 2.328125 L 0.953125 -9.453125 L 7.375 -9.453125 C 8.039062 -9.453125 8.640625 -9.347656 9.171875 -9.140625 C 9.703125 -8.941406 10.125 -8.644531 10.4375 -8.25 C 10.75 -7.851562 10.90625 -7.359375 10.90625 -6.765625 Z M 10.890625 2.328125 "/></g></g></g><g fill="#88b789" fill-opacity="1"><g transform="translate(40.56709, 20.634023)"><g><path d="M 10.90625 2.328125 L 3.9375 2.28125 C 3.4375 2.34375 2.957031 2.273438 2.5 2.078125 C 2.050781 1.878906 1.679688 1.550781 1.390625 1.09375 C 1.109375 0.644531 0.96875 0.09375 0.96875 -0.5625 L 0.96875 -6.828125 C 0.96875 -7.328125 1.128906 -7.78125 1.453125 -8.1875 C 1.773438 -8.59375 2.203125 -8.914062 2.734375 -9.15625 C 3.265625 -9.40625 3.859375 -9.53125 4.515625 -9.53125 L 7.734375 -9.53125 L 7.734375 -13.53125 L 10.90625 -13.53125 Z M 7.6875 -0.296875 L 7.6875 -6.890625 L 4.40625 -6.890625 L 4.40625 -0.3125 Z M 7.6875 -0.296875 "/></g></g></g><g fill="#88b789" fill-opacity="1"><g transform="translate(52.680755, 20.634023)"><g/></g></g><g fill="#88b789" fill-opacity="1"><g transform="translate(59.235006, 20.634023)"><g><path d="M 9.609375 2.328125 L 1.265625 2.328125 L 1.265625 -13.5625 L 9.609375 -13.5625 C 10.722656 -13.5625 11.597656 -13.375 12.234375 -13 C 12.867188 -12.625 13.1875 -11.972656 13.1875 -11.046875 L 13.1875 -0.234375 C 13.1875 0.429688 13.03125 0.945312 12.71875 1.3125 C 12.40625 1.6875 11.976562 1.945312 11.4375 2.09375 C 10.90625 2.25 10.296875 2.328125 9.609375 2.328125 Z M 9.75 -0.296875 L 9.71875 -10.921875 L 4.6875 -10.953125 L 4.71875 -0.3125 Z M 9.75 -0.296875 "/></g></g></g><g fill="#88b789" fill-opacity="1"><g transform="translate(73.650461, 20.634023)"><g><path d="M 4.390625 2.1875 L 0.953125 2.1875 L 0.953125 -7.046875 C 0.953125 -7.941406 1.144531 -8.578125 1.53125 -8.953125 C 1.925781 -9.335938 2.664062 -9.53125 3.75 -9.53125 L 7.46875 -9.53125 L 7.46875 -6.890625 L 4.390625 -6.890625 Z M 4.390625 2.1875 "/></g></g></g><g fill="#88b789" fill-opacity="1"><g transform="translate(81.41413, 20.634023)"><g><path d="M 7.765625 2.484375 L 4.453125 2.484375 C 3.765625 2.484375 3.148438 2.410156 2.609375 2.265625 C 2.066406 2.117188 1.640625 1.863281 1.328125 1.5 C 1.015625 1.132812 0.859375 0.625 0.859375 -0.03125 L 0.859375 -7.203125 C 0.859375 -8.128906 1.179688 -8.773438 1.828125 -9.140625 C 2.472656 -9.515625 3.347656 -9.703125 4.453125 -9.703125 L 7.765625 -9.703125 C 8.890625 -9.703125 9.757812 -9.515625 10.375 -9.140625 C 11 -8.773438 11.3125 -8.128906 11.3125 -7.203125 L 11.3125 -0.03125 C 11.3125 0.625 11.160156 1.132812 10.859375 1.5 C 10.554688 1.863281 10.132812 2.117188 9.59375 2.265625 C 9.0625 2.410156 8.453125 2.484375 7.765625 2.484375 Z M 8.125 0.078125 L 8.078125 -7.265625 L 4.09375 -7.265625 L 4.140625 0.0625 Z M 8.125 0.078125 "/></g></g></g><g fill="#88b789" fill-opacity="1"><g transform="translate(93.586318, 20.634023)"><g><path d="M 7.46875 1.015625 L 4.375 1.015625 L 4.375 3.578125 L 1.15625 3.578125 L 1.15625 -9.53125 L 7.46875 -9.53125 C 8.09375 -9.53125 8.671875 -9.441406 9.203125 -9.265625 C 9.742188 -9.097656 10.175781 -8.804688 10.5 -8.390625 C 10.820312 -7.984375 10.984375 -7.410156 10.984375 -6.671875 L 11 -1.703125 C 11 -1.203125 10.84375 -0.742188 10.53125 -0.328125 C 10.21875 0.0859375 9.796875 0.414062 9.265625 0.65625 C 8.734375 0.894531 8.132812 1.015625 7.46875 1.015625 Z M 7.625 -1.640625 L 7.59375 -6.90625 L 4.375 -6.921875 L 4.40625 -1.640625 Z M 7.625 -1.640625 "/></g></g></g></svg>