<svg xmlns="http://www.w3.org/2000/svg" xmlns:xlink="http://www.w3.org/1999/xlink" zoomAndPan="magnify" viewBox="-1 0 18 18" preserveAspectRatio="xMidYMid meet" version="1.0"><defs><clipPath id="1eac19451d"><path d="M 0 0.117188 L 17 0.117188 L 17 17.878906 L 0 17.878906 Z M 0 0.117188 " clip-rule="nonzero"/></clipPath><clipPath id="f3ae9c48b2"><path d="M 5.148438 8 L 14.03125 8 L 14.03125 12 L 5.148438 12 Z M 5.148438 8 " clip-rule="nonzero"/></clipPath><clipPath id="348669cdf9"><path d="M 5.148438 6.207031 L 14 6.207031 L 14 12.125 L 5.148438 12.125 Z M 5.148438 6.207031 " clip-rule="nonzero"/></clipPath></defs><g clip-path="url(#1eac19451d)"><path fill="currentColor" d="M 9.835938 0.984375 C 3.648438 0.117188 0.00390625 5.128906 0.117188 8.785156 C 0.269531 13.710938 3.597656 17.882812 8.582031 17.574219 C 12.058594 17.351562 15.273438 15.351562 16.089844 11.617188 C 17.761719 3.984375 10.824219 1.121094 9.835938 0.984375 Z M 9.835938 0.984375 " fill-opacity="1" fill-rule="evenodd"/></g><g clip-path="url(#f3ae9c48b2)"><path fill="#ffffff" d="M 8.867188 9.90625 C 8.867188 10.878906 8.035156 11.667969 7.007812 11.667969 C 5.980469 11.667969 5.148438 10.878906 5.148438 9.90625 C 5.148438 8.933594 5.980469 8.144531 7.007812 8.144531 C 8.035156 8.144531 8.867188 8.933594 8.867188 9.90625 Z M 12.171875 8.144531 C 11.144531 8.144531 10.3125 8.933594 10.3125 9.90625 C 10.3125 10.878906 11.144531 11.667969 12.171875 11.667969 C 13.199219 11.667969 14.03125 10.878906 14.03125 9.90625 C 14.03125 8.933594 13.199219 8.144531 12.171875 8.144531 Z M 12.171875 8.144531 " fill-opacity="1" fill-rule="nonzero"/></g><g clip-path="url(#348669cdf9)"><path fill="#000000" d="M 10.421875 11.925781 C 9.839844 12.089844 9.207031 12.082031 8.636719 11.894531 C 8.527344 11.863281 8.453125 11.75 8.484375 11.636719 C 8.519531 11.53125 8.636719 11.460938 8.757812 11.492188 C 9.261719 11.65625 9.796875 11.667969 10.3125 11.523438 C 10.585938 11.449219 10.695312 11.84375 10.421875 11.925781 Z M 8.792969 9.625 C 8.792969 8.972656 8.246094 8.457031 7.554688 8.457031 C 6.878906 8.457031 6.320312 8.984375 6.320312 9.625 C 6.320312 10.269531 6.878906 10.796875 7.554688 10.796875 C 8.246094 10.796875 8.792969 10.269531 8.792969 9.625 Z M 12.742188 8.457031 C 12.0625 8.457031 11.503906 8.984375 11.503906 9.625 C 11.503906 10.269531 12.0625 10.796875 12.742188 10.796875 C 13.417969 10.796875 13.976562 10.269531 13.976562 9.625 C 13.976562 8.984375 13.417969 8.457031 12.742188 8.457031 Z M 7.761719 6.707031 C 7.882812 6.714844 7.980469 6.601562 7.980469 6.5 C 7.980469 6.382812 7.882812 6.300781 7.761719 6.292969 C 7.128906 6.238281 6.496094 6.375 5.925781 6.652344 C 5.675781 6.777344 5.894531 7.140625 6.144531 7.015625 C 6.648438 6.769531 7.207031 6.664062 7.761719 6.707031 Z M 13.101562 7.015625 C 13.351562 7.140625 13.570312 6.789062 13.320312 6.652344 C 12.761719 6.375 12.117188 6.238281 11.492188 6.292969 C 11.371094 6.300781 11.273438 6.382812 11.273438 6.5 C 11.273438 6.601562 11.371094 6.714844 11.492188 6.707031 C 12.050781 6.664062 12.609375 6.769531 13.101562 7.015625 Z M 13.101562 7.015625 " fill-opacity="1" fill-rule="nonzero"/></g></svg>