<svg xmlns="http://www.w3.org/2000/svg" xmlns:xlink="http://www.w3.org/1999/xlink" width="267" zoomAndPan="magnify" viewBox="0 0 200.25 244.499991" height="326" preserveAspectRatio="xMidYMid meet" version="1.0"><path fill="#75ea89" d="M 95.859375 47.253906 C 86.691406 51.777344 79.15625 60.574219 78.386719 70.75 C 77.855469 77.835938 80.542969 84.929688 79.640625 91.980469 C 78.097656 104.070312 66.78125 112.40625 61.84375 123.554688 C 55.976562 136.8125 60.105469 153.003906 69.425781 164.117188 C 78.742188 175.230469 92.429688 181.898438 106.390625 185.875 C 119.605469 189.640625 133.609375 191.273438 147.171875 189.039062 C 160.734375 186.804688 173.84375 180.488281 182.921875 170.1875 C 192 159.882812 196.644531 145.425781 193.796875 132.003906 C 191.589844 121.621094 185.265625 112.523438 182.589844 102.253906 C 180.851562 95.582031 180.699219 88.582031 179.042969 81.890625 C 176.1875 70.347656 168.816406 60.125 159.203125 53.117188 C 141.875 40.488281 115.339844 37.640625 95.859375 47.253906 Z M 95.859375 47.253906 " fill-opacity="1" fill-rule="evenodd"/><path fill="#273a1f" d="M 181.386719 115.988281 C 181.152344 115.960938 180.933594 115.894531 180.726562 115.78125 C 180.519531 115.667969 180.34375 115.519531 180.195312 115.335938 C 180.050781 115.15625 179.941406 114.949219 179.878906 114.726562 C 179.8125 114.5 179.792969 114.269531 179.816406 114.039062 C 179.84375 113.804688 179.910156 113.585938 180.023438 113.378906 C 180.136719 113.175781 180.285156 112.996094 180.46875 112.851562 C 180.652344 112.703125 180.855469 112.597656 181.082031 112.53125 C 181.308594 112.464844 181.535156 112.445312 181.769531 112.472656 C 183.066406 112.613281 184.453125 113.304688 185.8125 114.660156 C 187.453125 116.292969 189.128906 118.972656 190.625 122.632812 C 196.078125 135.972656 199.503906 162.925781 192.175781 197.8125 C 192.125 198.042969 192.035156 198.253906 191.902344 198.445312 C 191.769531 198.640625 191.605469 198.800781 191.410156 198.929688 C 191.210938 199.058594 191 199.144531 190.765625 199.1875 C 190.535156 199.230469 190.304688 199.230469 190.074219 199.179688 C 189.847656 199.132812 189.632812 199.042969 189.441406 198.910156 C 189.246094 198.777344 189.085938 198.613281 188.957031 198.417969 C 188.828125 198.222656 188.742188 198.007812 188.699219 197.777344 C 188.652344 197.546875 188.65625 197.316406 188.703125 197.085938 C 195.828125 163.15625 192.648438 136.941406 187.34375 123.96875 C 186.070312 120.863281 184.699219 118.554688 183.308594 117.167969 C 182.644531 116.503906 182.019531 116.058594 181.386719 115.988281 Z M 181.386719 115.988281 " fill-opacity="1" fill-rule="evenodd"/><path fill="#273a1f" d="M 191.785156 188.429688 C 191.6875 188.214844 191.636719 187.992188 191.628906 187.757812 C 191.625 187.519531 191.664062 187.292969 191.746094 187.074219 C 191.832031 186.855469 191.953125 186.660156 192.117188 186.492188 C 192.277344 186.320312 192.464844 186.1875 192.679688 186.089844 C 192.894531 185.996094 193.121094 185.945312 193.355469 185.9375 C 193.589844 185.933594 193.820312 185.972656 194.039062 186.054688 C 194.257812 186.140625 194.453125 186.261719 194.625 186.421875 C 194.792969 186.585938 194.929688 186.773438 195.023438 186.988281 C 195.328125 187.667969 196.832031 191.054688 197.339844 194.882812 C 197.699219 197.640625 197.527344 200.605469 196.222656 203.078125 C 193.925781 207.429688 190.179688 207.179688 188.273438 206.71875 C 186.21875 208.65625 184.761719 209.722656 183.257812 210.035156 C 181.628906 210.382812 179.828125 209.945312 177.097656 208.386719 C 173.765625 209.394531 171.109375 209.046875 168.988281 207.90625 C 166.746094 206.699219 165.0625 204.539062 163.886719 201.871094 C 160.746094 194.804688 161.078125 184.039062 160.96875 182.058594 C 160.960938 181.828125 161 181.605469 161.082031 181.386719 C 161.160156 181.171875 161.28125 180.976562 161.4375 180.808594 C 161.59375 180.636719 161.777344 180.503906 161.988281 180.40625 C 162.195312 180.308594 162.417969 180.253906 162.648438 180.238281 C 162.878906 180.226562 163.101562 180.257812 163.320312 180.335938 C 163.539062 180.410156 163.738281 180.523438 163.910156 180.675781 C 164.085938 180.828125 164.222656 181.007812 164.328125 181.214844 C 164.433594 181.421875 164.492188 181.640625 164.511719 181.867188 C 164.613281 183.722656 164.1875 193.824219 167.128906 200.4375 C 167.96875 202.332031 169.082031 203.933594 170.671875 204.792969 C 172.21875 205.617188 174.183594 205.683594 176.703125 204.792969 C 177.234375 204.605469 177.738281 204.65625 178.214844 204.949219 C 179.371094 205.640625 180.296875 206.132812 181.109375 206.40625 C 181.566406 206.597656 182.042969 206.652344 182.535156 206.578125 C 183.75 206.324219 184.789062 205.195312 186.570312 203.460938 C 186.816406 203.214844 187.109375 203.058594 187.449219 202.988281 C 187.789062 202.917969 188.121094 202.945312 188.445312 203.070312 C 188.8125 203.210938 191.582031 204.308594 193.097656 201.421875 C 194.0625 199.59375 194.097656 197.386719 193.828125 195.339844 C 193.390625 191.984375 192.058594 189.019531 191.792969 188.421875 Z M 191.785156 188.429688 " fill-opacity="1" fill-rule="evenodd"/><path fill="#273a1f" d="M 92.726562 235.664062 C 92.492188 235.679688 92.261719 235.648438 92.039062 235.574219 C 91.8125 235.496094 91.613281 235.382812 91.433594 235.226562 C 91.257812 235.070312 91.117188 234.886719 91.011719 234.671875 C 90.910156 234.460938 90.851562 234.234375 90.835938 234 C 90.824219 233.765625 90.855469 233.535156 90.933594 233.3125 C 91.011719 233.089844 91.128906 232.890625 91.289062 232.714844 C 91.445312 232.539062 91.632812 232.398438 91.847656 232.296875 C 92.058594 232.195312 92.285156 232.140625 92.523438 232.128906 C 97.441406 231.855469 97.375 232.128906 154.058594 230.03125 C 154.292969 230.023438 154.523438 230.058594 154.742188 230.140625 C 154.960938 230.222656 155.160156 230.34375 155.332031 230.503906 C 155.503906 230.660156 155.640625 230.847656 155.738281 231.0625 C 155.835938 231.273438 155.890625 231.5 155.898438 231.734375 C 155.90625 231.96875 155.871094 232.195312 155.789062 232.414062 C 155.707031 232.632812 155.585938 232.832031 155.425781 233.003906 C 155.265625 233.175781 155.078125 233.308594 154.867188 233.40625 C 154.652344 233.503906 154.429688 233.558594 154.195312 233.566406 C 97.578125 235.664062 97.640625 235.394531 92.726562 235.664062 Z M 92.726562 235.664062 " fill-opacity="1" fill-rule="evenodd"/><path fill="#273a1f" d="M 122.199219 179.804688 C 122.195312 179.566406 122.238281 179.335938 122.328125 179.113281 C 122.417969 178.890625 122.546875 178.695312 122.714844 178.523438 C 122.882812 178.355469 123.078125 178.222656 123.300781 178.132812 C 123.523438 178.042969 123.753906 177.996094 123.996094 178 C 124.234375 178.003906 124.464844 178.054688 124.6875 178.148438 C 124.90625 178.246094 125.097656 178.378906 125.261719 178.554688 C 125.429688 178.730469 125.550781 178.929688 125.636719 179.152344 C 125.71875 179.378906 125.757812 179.609375 125.746094 179.847656 C 125.4375 205.964844 125.460938 205.84375 125.453125 231.855469 C 125.460938 232.09375 125.421875 232.328125 125.335938 232.550781 C 125.25 232.773438 125.121094 232.972656 124.957031 233.144531 C 124.789062 233.316406 124.59375 233.449219 124.371094 233.542969 C 124.152344 233.636719 123.921875 233.683594 123.679688 233.683594 C 123.441406 233.683594 123.207031 233.636719 122.988281 233.542969 C 122.765625 233.449219 122.570312 233.316406 122.40625 233.144531 C 122.238281 232.972656 122.109375 232.773438 122.023438 232.550781 C 121.9375 232.328125 121.898438 232.09375 121.90625 231.855469 C 121.90625 205.824219 121.890625 205.949219 122.199219 179.804688 Z M 122.199219 179.804688 " fill-opacity="1" fill-rule="evenodd"/><path fill="#273a1f" d="M 147.019531 231.808594 C 146.945312 232.027344 146.835938 232.226562 146.683594 232.402344 C 146.535156 232.578125 146.359375 232.71875 146.152344 232.828125 C 145.949219 232.933594 145.730469 233 145.5 233.019531 C 145.269531 233.042969 145.042969 233.019531 144.820312 232.953125 C 144.597656 232.886719 144.394531 232.78125 144.214844 232.636719 C 144.035156 232.492188 143.890625 232.316406 143.777344 232.117188 C 143.664062 231.914062 143.59375 231.699219 143.566406 231.46875 C 143.539062 231.238281 143.554688 231.011719 143.617188 230.789062 C 153.488281 197.90625 154.683594 198.355469 161.445312 175.441406 C 161.511719 175.21875 161.617188 175.011719 161.765625 174.832031 C 161.914062 174.648438 162.089844 174.5 162.296875 174.390625 C 162.503906 174.277344 162.722656 174.210938 162.957031 174.183594 C 163.191406 174.160156 163.421875 174.179688 163.644531 174.246094 C 163.871094 174.3125 164.074219 174.421875 164.257812 174.566406 C 164.441406 174.714844 164.589844 174.890625 164.699219 175.097656 C 164.8125 175.304688 164.882812 175.523438 164.90625 175.757812 C 164.929688 175.988281 164.910156 176.21875 164.84375 176.445312 C 158.085938 199.363281 156.890625 198.910156 147.019531 231.808594 Z M 147.019531 231.808594 " fill-opacity="1" fill-rule="evenodd"/><path fill="#273a1f" d="M 102.40625 234.488281 C 102.1875 234.574219 101.960938 234.617188 101.722656 234.613281 C 101.488281 234.613281 101.261719 234.566406 101.046875 234.472656 C 100.828125 234.382812 100.636719 234.25 100.472656 234.082031 C 100.308594 233.917969 100.183594 233.722656 100.09375 233.503906 C 99.875 232.957031 99.679688 232.449219 99.476562 231.890625 C 98.078125 228.007812 96.449219 221.558594 85.332031 180.910156 C 85.011719 179.742188 84.6875 178.546875 84.347656 177.324219 C 85.585938 177.421875 86.835938 177.464844 88.066406 177.457031 C 88.394531 178.652344 88.714844 179.820312 89.023438 180.960938 C 100.992188 224.710938 101.640625 227.75 103.234375 231.78125 C 103.285156 231.914062 103.339844 232.046875 103.394531 232.191406 C 103.480469 232.410156 103.519531 232.636719 103.515625 232.871094 C 103.515625 233.105469 103.464844 233.328125 103.375 233.542969 C 103.28125 233.757812 103.148438 233.945312 102.984375 234.109375 C 102.816406 234.273438 102.621094 234.398438 102.40625 234.488281 Z M 102.40625 234.488281 " fill-opacity="1" fill-rule="evenodd"/><path fill="#60b1f4" d="M 106.144531 80.125 C 111.058594 89.148438 123.859375 88.957031 128.167969 80.742188 C 128.339844 80.414062 132.730469 83.867188 139.996094 79.976562 C 169.320312 64.273438 97.226562 0.257812 44.730469 63.328125 C 31.335938 79.40625 36.199219 95.457031 50.390625 88.25 C 51.542969 87.660156 52.613281 86.921875 53.765625 86.335938 C 55.453125 88.664062 65.597656 104.738281 77.585938 85.242188 C 79.316406 86.789062 91.914062 98.066406 106.144531 80.117188 Z M 106.144531 80.125 " fill-opacity="1" fill-rule="evenodd"/><path fill="#273a1f" d="M 88.367188 89.269531 C 88.347656 89.039062 88.371094 88.808594 88.441406 88.585938 C 88.507812 88.359375 88.617188 88.15625 88.769531 87.976562 C 88.917969 87.796875 89.097656 87.652344 89.304688 87.542969 C 89.511719 87.433594 89.734375 87.367188 89.96875 87.34375 C 90.203125 87.320312 90.429688 87.34375 90.65625 87.414062 C 90.878906 87.484375 91.082031 87.59375 91.265625 87.742188 C 91.445312 87.890625 91.589844 88.070312 91.699219 88.277344 C 91.808594 88.484375 91.875 88.707031 91.898438 88.9375 C 94.105469 112.339844 95.308594 125.785156 97.292969 148.761719 C 97.3125 148.996094 97.289062 149.222656 97.21875 149.445312 C 97.144531 149.667969 97.035156 149.871094 96.882812 150.050781 C 96.730469 150.230469 96.550781 150.375 96.34375 150.480469 C 96.132812 150.589844 95.914062 150.652344 95.679688 150.671875 C 95.445312 150.691406 95.214844 150.667969 94.992188 150.597656 C 94.769531 150.527344 94.566406 150.414062 94.386719 150.261719 C 94.207031 150.113281 94.0625 149.933594 93.953125 149.722656 C 93.847656 149.515625 93.78125 149.296875 93.761719 149.0625 C 91.777344 126.105469 90.570312 112.660156 88.367188 89.269531 Z M 96.25 178 C 96.222656 177.761719 96.242188 177.527344 96.3125 177.296875 C 96.378906 177.070312 96.488281 176.863281 96.640625 176.675781 C 96.792969 176.492188 96.972656 176.34375 97.1875 176.230469 C 97.398438 176.117188 97.625 176.050781 97.863281 176.03125 C 98.101562 176.011719 98.335938 176.039062 98.5625 176.113281 C 98.792969 176.1875 98.996094 176.304688 99.175781 176.460938 C 99.359375 176.617188 99.5 176.804688 99.605469 177.019531 C 99.710938 177.234375 99.769531 177.460938 99.785156 177.699219 C 100.183594 182.359375 100.609375 187.367188 101.082031 192.777344 C 101.097656 193.007812 101.066406 193.234375 100.992188 193.453125 C 100.917969 193.671875 100.804688 193.867188 100.652344 194.042969 C 100.503906 194.21875 100.324219 194.359375 100.117188 194.460938 C 99.914062 194.566406 99.695312 194.628906 99.464844 194.648438 C 99.234375 194.667969 99.007812 194.644531 98.785156 194.578125 C 98.566406 194.507812 98.363281 194.402344 98.1875 194.253906 C 98.007812 194.109375 97.863281 193.933594 97.75 193.730469 C 97.640625 193.53125 97.570312 193.3125 97.546875 193.082031 C 97.082031 187.671875 96.652344 182.664062 96.25 178 Z M 96.25 178 " fill-opacity="1" fill-rule="evenodd"/><path fill="#273a1f" d="M 108.769531 164.910156 C 108.640625 165.839844 108.164062 166.863281 107.132812 168.238281 C 107.589844 169.515625 107.679688 170.820312 107.40625 172.152344 C 106.9375 174.316406 105.398438 176.195312 102.992188 177.632812 C 99.796875 179.546875 94.992188 180.726562 89.710938 180.929688 C 89.480469 180.941406 89.25 180.949219 89.015625 180.953125 C 87.804688 180.988281 86.574219 180.96875 85.332031 180.902344 C 78.773438 180.550781 72.019531 178.808594 67.140625 175.511719 C 56.960938 168.628906 53.71875 156.804688 54.699219 145.121094 C 55.671875 133.621094 60.773438 122.320312 67.054688 116.265625 C 67.222656 116.105469 67.417969 115.980469 67.640625 115.894531 C 67.859375 115.808594 68.085938 115.769531 68.324219 115.773438 C 68.558594 115.78125 68.785156 115.832031 69 115.925781 C 69.214844 116.019531 69.40625 116.152344 69.570312 116.324219 C 69.730469 116.496094 69.855469 116.691406 69.941406 116.910156 C 70.027344 117.128906 70.066406 117.355469 70.058594 117.589844 C 70.054688 117.828125 70.003906 118.050781 69.910156 118.269531 C 69.8125 118.484375 69.679688 118.671875 69.507812 118.835938 C 63.726562 124.398438 59.128906 134.839844 58.230469 145.421875 C 57.347656 155.832031 60.054688 166.449219 69.132812 172.582031 C 73.230469 175.355469 78.8125 176.878906 84.347656 177.324219 C 85.585938 177.421875 86.835938 177.464844 88.0625 177.457031 C 91.625 177.429688 95.019531 176.949219 97.8125 176.0625 C 102.207031 174.664062 105.207031 172.328125 103.507812 168.699219 C 103.363281 168.390625 103.3125 168.070312 103.355469 167.730469 C 103.394531 167.394531 103.523438 167.09375 103.742188 166.832031 C 104.636719 165.734375 105.167969 165.074219 105.265625 164.410156 C 105.316406 164.074219 105.175781 163.769531 104.984375 163.378906 C 104.636719 162.652344 104.089844 161.785156 103.40625 160.613281 C 103.25 160.34375 103.171875 160.050781 103.167969 159.742188 C 103.164062 159.429688 103.238281 159.140625 103.390625 158.867188 C 103.597656 158.511719 104.914062 156.324219 104.125 154.257812 C 103.804688 153.421875 103.09375 152.648438 101.84375 152.007812 C 99.828125 150.976562 98.507812 150.484375 97.359375 150.441406 C 96.289062 150.402344 95.40625 150.777344 94.230469 151.285156 C 92.945312 151.832031 91.394531 152.5625 89.222656 153.304688 C 89 153.375 88.773438 153.402344 88.542969 153.386719 C 88.308594 153.367188 88.089844 153.304688 87.882812 153.203125 C 87.671875 153.097656 87.492188 152.957031 87.339844 152.785156 C 87.1875 152.609375 87.074219 152.410156 86.996094 152.191406 C 86.921875 151.972656 86.890625 151.746094 86.90625 151.515625 C 86.917969 151.28125 86.976562 151.0625 87.074219 150.851562 C 87.175781 150.644531 87.3125 150.460938 87.484375 150.304688 C 87.65625 150.148438 87.851562 150.03125 88.070312 149.953125 C 90.136719 149.25 91.605469 148.5625 92.820312 148.035156 C 94.566406 147.28125 95.910156 146.84375 97.5 146.90625 C 99.015625 146.964844 100.800781 147.492188 103.460938 148.859375 C 105.699219 150.007812 106.859375 151.496094 107.4375 152.996094 C 108.410156 155.542969 107.5625 158.230469 106.945312 159.648438 C 107.621094 160.796875 108.128906 161.65625 108.425781 162.40625 C 108.773438 163.210938 108.890625 164.046875 108.769531 164.910156 Z M 108.769531 164.910156 " fill-opacity="1" fill-rule="evenodd"/><path fill="#273a1f" d="M 66.601562 154.019531 C 66.375 154.074219 66.148438 154.082031 65.921875 154.046875 C 65.691406 154.011719 65.476562 153.933594 65.28125 153.8125 C 65.082031 153.695312 64.914062 153.542969 64.773438 153.355469 C 64.636719 153.171875 64.539062 152.964844 64.480469 152.742188 C 64.421875 152.519531 64.40625 152.292969 64.4375 152.0625 C 64.46875 151.835938 64.539062 151.621094 64.65625 151.417969 C 64.769531 151.21875 64.917969 151.046875 65.101562 150.90625 C 65.28125 150.761719 65.484375 150.660156 65.707031 150.59375 C 74.222656 148.371094 80.792969 145.09375 85.445312 144.039062 C 89.445312 143.132812 92.273438 143.75 94.085938 146.652344 C 94.210938 146.851562 94.289062 147.066406 94.328125 147.300781 C 94.367188 147.53125 94.359375 147.761719 94.308594 147.988281 C 94.253906 148.21875 94.160156 148.425781 94.023438 148.617188 C 93.886719 148.808594 93.71875 148.964844 93.519531 149.089844 C 93.320312 149.214844 93.105469 149.296875 92.871094 149.335938 C 92.640625 149.371094 92.410156 149.367188 92.183594 149.3125 C 91.953125 149.261719 91.742188 149.167969 91.550781 149.03125 C 91.359375 148.894531 91.203125 148.726562 91.078125 148.527344 C 90.082031 146.9375 88.429688 146.992188 86.234375 147.496094 C 81.605469 148.542969 75.070312 151.824219 66.601562 154.027344 Z M 66.601562 154.019531 " fill-opacity="1" fill-rule="evenodd"/><path fill="#273a1f" d="M 146.554688 116.289062 C 146.558594 116.054688 146.605469 115.832031 146.695312 115.613281 C 146.789062 115.398438 146.917969 115.207031 147.085938 115.042969 C 147.253906 114.878906 147.445312 114.75 147.664062 114.664062 C 147.878906 114.574219 148.105469 114.53125 148.34375 114.535156 C 148.578125 114.535156 148.804688 114.582031 149.019531 114.671875 C 149.238281 114.765625 149.429688 114.894531 149.59375 115.0625 C 149.757812 115.230469 149.886719 115.421875 149.972656 115.640625 C 150.0625 115.855469 150.105469 116.082031 150.101562 116.316406 C 150.085938 118.90625 150.054688 118.835938 150.0625 121.417969 C 150.070312 121.65625 150.03125 121.890625 149.945312 122.113281 C 149.859375 122.335938 149.734375 122.535156 149.566406 122.710938 C 149.402344 122.882812 149.207031 123.015625 148.988281 123.109375 C 148.765625 123.203125 148.535156 123.253906 148.292969 123.253906 C 148.054688 123.253906 147.824219 123.207031 147.601562 123.113281 C 147.378906 123.019531 147.183594 122.890625 147.015625 122.714844 C 146.847656 122.542969 146.722656 122.347656 146.636719 122.121094 C 146.546875 121.898438 146.507812 121.667969 146.515625 121.425781 C 146.515625 118.828125 146.539062 118.894531 146.554688 116.289062 Z M 146.554688 116.289062 " fill-opacity="1" fill-rule="evenodd"/><path fill="#273a1f" d="M 125.125 116.289062 C 125.121094 116.050781 125.160156 115.820312 125.25 115.597656 C 125.335938 115.375 125.464844 115.175781 125.632812 115.003906 C 125.800781 114.832031 125.996094 114.703125 126.21875 114.609375 C 126.441406 114.519531 126.671875 114.472656 126.914062 114.476562 C 127.152344 114.476562 127.382812 114.523438 127.605469 114.621094 C 127.824219 114.714844 128.019531 114.851562 128.183594 115.023438 C 128.351562 115.199219 128.476562 115.398438 128.558594 115.621094 C 128.644531 115.847656 128.683594 116.078125 128.671875 116.316406 C 128.652344 118.90625 128.621094 118.835938 128.632812 121.417969 C 128.625 121.648438 128.574219 121.867188 128.480469 122.078125 C 128.386719 122.285156 128.257812 122.472656 128.09375 122.632812 C 127.929688 122.792969 127.742188 122.914062 127.527344 123 C 127.316406 123.089844 127.09375 123.132812 126.863281 123.132812 C 126.632812 123.132812 126.410156 123.089844 126.199219 123.003906 C 125.984375 122.921875 125.792969 122.796875 125.628906 122.636719 C 125.464844 122.480469 125.332031 122.296875 125.238281 122.085938 C 125.144531 121.875 125.09375 121.65625 125.085938 121.425781 C 125.085938 118.828125 125.109375 118.894531 125.125 116.289062 Z M 125.125 116.289062 " fill-opacity="1" fill-rule="evenodd"/><path fill="#273a1f" d="M 113.949219 127.96875 C 113.722656 128.019531 113.492188 128.027344 113.257812 127.984375 C 113.027344 127.945312 112.8125 127.859375 112.613281 127.734375 C 112.414062 127.609375 112.25 127.449219 112.113281 127.257812 C 111.980469 127.066406 111.886719 126.855469 111.835938 126.625 C 111.785156 126.394531 111.78125 126.164062 111.820312 125.933594 C 111.859375 125.703125 111.945312 125.488281 112.070312 125.289062 C 112.199219 125.09375 112.359375 124.925781 112.550781 124.792969 C 112.742188 124.65625 112.953125 124.566406 113.183594 124.515625 C 116.03125 123.886719 118.78125 123.398438 121.808594 124.367188 C 123.828125 125.015625 125.984375 126.304688 128.351562 128.726562 C 128.515625 128.894531 128.644531 129.085938 128.730469 129.304688 C 128.820312 129.523438 128.859375 129.75 128.859375 129.984375 C 128.855469 130.21875 128.808594 130.445312 128.714844 130.660156 C 128.625 130.875 128.492188 131.066406 128.324219 131.230469 C 128.15625 131.394531 127.964844 131.519531 127.746094 131.605469 C 127.527344 131.695312 127.300781 131.738281 127.0625 131.734375 C 126.828125 131.730469 126.601562 131.683594 126.386719 131.589844 C 126.171875 131.5 125.980469 131.367188 125.816406 131.199219 C 123.957031 129.304688 122.304688 128.242188 120.722656 127.742188 C 118.347656 126.976562 116.179688 127.476562 113.949219 127.96875 Z M 113.949219 127.96875 " fill-opacity="1" fill-rule="evenodd"/><path fill="#1781c9" d="M 56.660156 80.355469 C 56.621094 80.589844 56.542969 80.8125 56.417969 81.015625 C 56.292969 81.21875 56.132812 81.390625 55.9375 81.53125 C 55.742188 81.667969 55.527344 81.765625 55.292969 81.816406 C 55.058594 81.871094 54.824219 81.875 54.589844 81.832031 C 54.351562 81.789062 54.136719 81.703125 53.933594 81.574219 C 53.734375 81.441406 53.566406 81.277344 53.433594 81.078125 C 53.300781 80.878906 53.210938 80.664062 53.164062 80.429688 C 53.117188 80.195312 53.117188 79.960938 53.167969 79.726562 C 55.617188 66.140625 66.308594 53.648438 67.960938 51.730469 C 68.117188 51.558594 68.300781 51.425781 68.507812 51.324219 C 68.714844 51.226562 68.933594 51.167969 69.164062 51.15625 C 69.394531 51.140625 69.617188 51.171875 69.835938 51.246094 C 70.054688 51.320312 70.253906 51.429688 70.425781 51.582031 C 70.601562 51.730469 70.742188 51.910156 70.847656 52.113281 C 70.953125 52.316406 71.015625 52.535156 71.035156 52.765625 C 71.054688 52.992188 71.03125 53.21875 70.964844 53.4375 C 70.898438 53.65625 70.792969 53.855469 70.648438 54.035156 C 69.089844 55.84375 58.960938 67.558594 56.65625 80.355469 Z M 56.660156 80.355469 " fill-opacity="1" fill-rule="evenodd"/><path fill="#1781c9" d="M 83.796875 43.71875 C 83.894531 43.503906 84.03125 43.320312 84.203125 43.164062 C 84.375 43.003906 84.570312 42.882812 84.789062 42.804688 C 85.011719 42.722656 85.238281 42.6875 85.472656 42.695312 C 85.703125 42.703125 85.929688 42.757812 86.140625 42.855469 C 86.355469 42.949219 86.539062 43.085938 86.699219 43.253906 C 86.859375 43.425781 86.980469 43.621094 87.0625 43.839844 C 87.148438 44.058594 87.183594 44.285156 87.179688 44.515625 C 87.171875 44.75 87.121094 44.972656 87.023438 45.1875 C 81.171875 57.992188 80.707031 60.179688 78.878906 75.570312 C 78.835938 75.789062 78.753906 75.992188 78.636719 76.183594 C 78.515625 76.371094 78.367188 76.53125 78.183594 76.664062 C 78.003906 76.796875 77.804688 76.890625 77.589844 76.949219 C 77.371094 77.003906 77.152344 77.019531 76.929688 76.996094 C 76.707031 76.96875 76.496094 76.902344 76.300781 76.796875 C 76.101562 76.691406 75.929688 76.554688 75.785156 76.382812 C 75.640625 76.210938 75.53125 76.019531 75.460938 75.808594 C 75.386719 75.597656 75.355469 75.378906 75.367188 75.15625 C 77.257812 59.234375 77.753906 56.96875 83.804688 43.722656 Z M 83.796875 43.71875 " fill-opacity="1" fill-rule="evenodd"/><path fill="#1781c9" d="M 95.082031 53.964844 C 94.964844 53.761719 94.894531 53.542969 94.863281 53.308594 C 94.835938 53.074219 94.855469 52.84375 94.917969 52.617188 C 94.980469 52.390625 95.085938 52.1875 95.234375 52 C 95.378906 51.816406 95.554688 51.667969 95.757812 51.550781 C 95.964844 51.4375 96.183594 51.363281 96.417969 51.335938 C 96.652344 51.308594 96.882812 51.328125 97.109375 51.390625 C 97.335938 51.457031 97.542969 51.558594 97.726562 51.707031 C 97.914062 51.851562 98.0625 52.027344 98.179688 52.230469 C 101.625 58.355469 103.675781 65.238281 105.585938 70.597656 C 105.664062 70.820312 105.695312 71.046875 105.683594 71.28125 C 105.671875 71.515625 105.617188 71.738281 105.515625 71.949219 C 105.414062 72.160156 105.277344 72.347656 105.101562 72.503906 C 104.925781 72.660156 104.730469 72.777344 104.507812 72.855469 C 104.289062 72.933594 104.058594 72.96875 103.824219 72.957031 C 103.589844 72.945312 103.367188 72.886719 103.15625 72.789062 C 102.941406 72.6875 102.757812 72.550781 102.601562 72.375 C 102.441406 72.203125 102.324219 72.003906 102.246094 71.785156 C 100.386719 66.585938 98.425781 59.902344 95.089844 53.964844 Z M 95.082031 53.964844 " fill-opacity="1" fill-rule="evenodd"/><path fill="#1781c9" d="M 103.328125 44.058594 C 103.144531 43.914062 103 43.742188 102.882812 43.539062 C 102.769531 43.339844 102.699219 43.121094 102.671875 42.894531 C 102.640625 42.664062 102.65625 42.4375 102.71875 42.210938 C 102.777344 41.988281 102.878906 41.785156 103.019531 41.601562 C 103.160156 41.417969 103.328125 41.265625 103.53125 41.148438 C 103.730469 41.03125 103.945312 40.953125 104.175781 40.921875 C 104.402344 40.886719 104.632812 40.898438 104.855469 40.953125 C 105.082031 41.007812 105.289062 41.105469 105.476562 41.242188 C 106.976562 42.382812 126.363281 55.730469 129.796875 72.207031 C 129.835938 72.433594 129.832031 72.660156 129.785156 72.886719 C 129.738281 73.113281 129.648438 73.320312 129.519531 73.511719 C 129.390625 73.703125 129.230469 73.859375 129.039062 73.988281 C 128.847656 74.117188 128.636719 74.207031 128.410156 74.253906 C 128.1875 74.300781 127.960938 74.300781 127.734375 74.261719 C 127.503906 74.21875 127.292969 74.136719 127.101562 74.015625 C 126.90625 73.890625 126.742188 73.738281 126.605469 73.550781 C 126.472656 73.363281 126.378906 73.15625 126.324219 72.933594 C 125.050781 66.835938 121.378906 61.238281 117.371094 56.617188 C 111.199219 49.5 104.183594 44.707031 103.332031 44.058594 Z M 103.328125 44.058594 " fill-opacity="1" fill-rule="evenodd"/><path fill="#273a1f" d="M 5.570312 139.285156 C 2.601562 153.707031 6.730469 165.933594 16.65625 172.007812 C 17.519531 172.53125 18.414062 173 19.339844 173.40625 C 21.382812 162.335938 26.589844 152.324219 31.96875 151.214844 C 33.671875 150.859375 36.824219 151.171875 38.851562 157.140625 C 42.390625 167.550781 38.515625 172.613281 35.890625 174.703125 C 32.238281 177.617188 26.722656 178.257812 21.242188 176.675781 C 20.832031 179.828125 20.746094 182.988281 20.988281 186.15625 C 21.75 195.542969 26.011719 206.769531 41.53125 208.621094 C 44.214844 201.5 48.464844 195.84375 50.480469 194.5625 C 55.125 191.605469 57.765625 192.730469 58.914062 193.691406 C 60.957031 195.339844 61.425781 198.636719 60.113281 202.109375 C 58.332031 206.789062 53.25 211.65625 44.3125 211.28125 C 43.929688 211.261719 43.550781 211.242188 43.175781 211.214844 C 41.9375 215.082031 41.253906 219.316406 41.808594 223.414062 C 42.921875 231.625 48.78125 237.371094 59.171875 240.589844 C 59.714844 240.828125 60.175781 241.46875 59.980469 242.101562 C 59.933594 242.257812 59.859375 242.398438 59.757812 242.523438 C 59.652344 242.648438 59.53125 242.746094 59.386719 242.824219 C 59.246094 242.898438 59.09375 242.945312 58.933594 242.960938 C 58.769531 242.972656 58.613281 242.957031 58.460938 242.910156 C 47.070312 239.457031 40.648438 232.976562 39.394531 223.742188 C 38.8125 219.457031 39.472656 215.035156 40.730469 210.960938 C 23.078125 208.613281 19.253906 194.734375 18.558594 186.339844 C 18.304688 182.832031 18.429688 179.335938 18.9375 175.851562 C 17.703125 175.351562 16.515625 174.753906 15.378906 174.058594 C 4.554688 167.429688 -0.00390625 154.242188 3.195312 138.777344 C 3.230469 138.617188 3.289062 138.472656 3.382812 138.335938 C 3.472656 138.203125 3.585938 138.089844 3.722656 138.003906 C 3.859375 137.914062 4.003906 137.855469 4.164062 137.824219 C 4.324219 137.792969 4.484375 137.792969 4.640625 137.828125 C 4.695312 137.839844 4.742188 137.855469 4.789062 137.871094 C 5.082031 137.972656 5.300781 138.160156 5.449219 138.429688 C 5.601562 138.699219 5.640625 138.984375 5.570312 139.285156 Z M 34.371094 172.808594 C 38.042969 169.882812 38.8125 164.59375 36.546875 157.917969 C 35.796875 155.710938 34.480469 153.191406 32.460938 153.589844 C 28.605469 154.386719 23.511719 163.414062 21.609375 174.25 C 26.4375 175.746094 31.257812 175.289062 34.371094 172.808594 Z M 44.414062 208.863281 C 52.054688 209.1875 56.359375 205.152344 57.835938 201.257812 C 58.742188 198.871094 58.554688 196.539062 57.382812 195.585938 C 56.28125 194.691406 54.238281 195.066406 51.804688 196.617188 C 50.230469 197.617188 46.519531 202.53125 44.039062 208.839844 C 44.15625 208.851562 44.285156 208.859375 44.414062 208.863281 Z M 44.414062 208.863281 " fill-opacity="1" fill-rule="nonzero"/><path fill="#75ea89" d="M 95.859375 47.253906 C 86.691406 51.777344 79.15625 60.574219 78.386719 70.75 C 77.855469 77.835938 80.542969 84.929688 79.640625 91.980469 C 78.097656 104.070312 66.78125 112.40625 61.84375 123.554688 C 55.976562 136.8125 60.105469 153.003906 69.425781 164.117188 C 78.742188 175.230469 92.429688 181.898438 106.390625 185.875 C 119.605469 189.640625 133.609375 191.273438 147.171875 189.039062 C 160.734375 186.804688 173.84375 180.488281 182.921875 170.1875 C 192 159.882812 196.644531 145.425781 193.796875 132.003906 C 191.589844 121.621094 185.265625 112.523438 182.589844 102.253906 C 180.851562 95.582031 180.699219 88.582031 179.042969 81.890625 C 176.1875 70.347656 168.816406 60.125 159.203125 53.117188 C 141.875 40.488281 115.339844 37.640625 95.859375 47.253906 Z M 95.859375 47.253906 " fill-opacity="1" fill-rule="evenodd"/><path fill="#273a1f" d="M 181.386719 115.988281 C 181.152344 115.960938 180.933594 115.894531 180.726562 115.78125 C 180.519531 115.667969 180.34375 115.519531 180.195312 115.335938 C 180.050781 115.15625 179.941406 114.949219 179.878906 114.726562 C 179.8125 114.5 179.792969 114.269531 179.816406 114.039062 C 179.84375 113.804688 179.910156 113.585938 180.023438 113.378906 C 180.136719 113.175781 180.285156 112.996094 180.46875 112.851562 C 180.652344 112.703125 180.855469 112.597656 181.082031 112.53125 C 181.308594 112.464844 181.535156 112.445312 181.769531 112.472656 C 183.066406 112.613281 184.453125 113.304688 185.8125 114.660156 C 187.453125 116.292969 189.128906 118.972656 190.625 122.632812 C 196.078125 135.972656 199.503906 162.925781 192.175781 197.8125 C 192.125 198.042969 192.035156 198.253906 191.902344 198.445312 C 191.769531 198.640625 191.605469 198.800781 191.410156 198.929688 C 191.210938 199.058594 191 199.144531 190.765625 199.1875 C 190.535156 199.230469 190.304688 199.230469 190.074219 199.179688 C 189.847656 199.132812 189.632812 199.042969 189.441406 198.910156 C 189.246094 198.777344 189.085938 198.613281 188.957031 198.417969 C 188.828125 198.222656 188.742188 198.007812 188.699219 197.777344 C 188.652344 197.546875 188.65625 197.316406 188.703125 197.085938 C 195.828125 163.15625 192.648438 136.941406 187.34375 123.96875 C 186.070312 120.863281 184.699219 118.554688 183.308594 117.167969 C 182.644531 116.503906 182.019531 116.058594 181.386719 115.988281 Z M 181.386719 115.988281 " fill-opacity="1" fill-rule="evenodd"/><path fill="#273a1f" d="M 191.785156 188.429688 C 191.6875 188.214844 191.636719 187.992188 191.628906 187.757812 C 191.625 187.519531 191.664062 187.292969 191.746094 187.074219 C 191.832031 186.855469 191.953125 186.660156 192.117188 186.492188 C 192.277344 186.320312 192.464844 186.1875 192.679688 186.089844 C 192.894531 185.996094 193.121094 185.945312 193.355469 185.9375 C 193.589844 185.933594 193.820312 185.972656 194.039062 186.054688 C 194.257812 186.140625 194.453125 186.261719 194.625 186.421875 C 194.792969 186.585938 194.929688 186.773438 195.023438 186.988281 C 195.328125 187.667969 196.832031 191.054688 197.339844 194.882812 C 197.699219 197.640625 197.527344 200.605469 196.222656 203.078125 C 193.925781 207.429688 190.179688 207.179688 188.273438 206.71875 C 186.21875 208.65625 184.761719 209.722656 183.257812 210.035156 C 181.628906 210.382812 179.828125 209.945312 177.097656 208.386719 C 173.765625 209.394531 171.109375 209.046875 168.988281 207.90625 C 166.746094 206.699219 165.0625 204.539062 163.886719 201.871094 C 160.746094 194.804688 161.078125 184.039062 160.96875 182.058594 C 160.960938 181.828125 161 181.605469 161.082031 181.386719 C 161.160156 181.171875 161.28125 180.976562 161.4375 180.808594 C 161.59375 180.636719 161.777344 180.503906 161.988281 180.40625 C 162.195312 180.308594 162.417969 180.253906 162.648438 180.238281 C 162.878906 180.226562 163.101562 180.257812 163.320312 180.335938 C 163.539062 180.410156 163.738281 180.523438 163.910156 180.675781 C 164.085938 180.828125 164.222656 181.007812 164.328125 181.214844 C 164.433594 181.421875 164.492188 181.640625 164.511719 181.867188 C 164.613281 183.722656 164.1875 193.824219 167.128906 200.4375 C 167.96875 202.332031 169.082031 203.933594 170.671875 204.792969 C 172.21875 205.617188 174.183594 205.683594 176.703125 204.792969 C 177.234375 204.605469 177.738281 204.65625 178.214844 204.949219 C 179.371094 205.640625 180.296875 206.132812 181.109375 206.40625 C 181.566406 206.597656 182.042969 206.652344 182.535156 206.578125 C 183.75 206.324219 184.789062 205.195312 186.570312 203.460938 C 186.816406 203.214844 187.109375 203.058594 187.449219 202.988281 C 187.789062 202.917969 188.121094 202.945312 188.445312 203.070312 C 188.8125 203.210938 191.582031 204.308594 193.097656 201.421875 C 194.0625 199.59375 194.097656 197.386719 193.828125 195.339844 C 193.390625 191.984375 192.058594 189.019531 191.792969 188.421875 Z M 191.785156 188.429688 " fill-opacity="1" fill-rule="evenodd"/><path fill="#273a1f" d="M 92.726562 235.664062 C 92.492188 235.679688 92.261719 235.648438 92.039062 235.574219 C 91.8125 235.496094 91.613281 235.382812 91.433594 235.226562 C 91.257812 235.070312 91.117188 234.886719 91.011719 234.671875 C 90.910156 234.460938 90.851562 234.234375 90.835938 234 C 90.824219 233.765625 90.855469 233.535156 90.933594 233.3125 C 91.011719 233.089844 91.128906 232.890625 91.289062 232.714844 C 91.445312 232.539062 91.632812 232.398438 91.847656 232.296875 C 92.058594 232.195312 92.285156 232.140625 92.523438 232.128906 C 97.441406 231.855469 97.375 232.128906 154.058594 230.03125 C 154.292969 230.023438 154.523438 230.058594 154.742188 230.140625 C 154.960938 230.222656 155.160156 230.34375 155.332031 230.503906 C 155.503906 230.660156 155.640625 230.847656 155.738281 231.0625 C 155.835938 231.273438 155.890625 231.5 155.898438 231.734375 C 155.90625 231.96875 155.871094 232.195312 155.789062 232.414062 C 155.707031 232.632812 155.585938 232.832031 155.425781 233.003906 C 155.265625 233.175781 155.078125 233.308594 154.867188 233.40625 C 154.652344 233.503906 154.429688 233.558594 154.195312 233.566406 C 97.578125 235.664062 97.640625 235.394531 92.726562 235.664062 Z M 92.726562 235.664062 " fill-opacity="1" fill-rule="evenodd"/><path fill="#273a1f" d="M 122.199219 179.804688 C 122.195312 179.566406 122.238281 179.335938 122.328125 179.113281 C 122.417969 178.890625 122.546875 178.695312 122.714844 178.523438 C 122.882812 178.355469 123.078125 178.222656 123.300781 178.132812 C 123.523438 178.042969 123.753906 177.996094 123.996094 178 C 124.234375 178.003906 124.464844 178.054688 124.6875 178.148438 C 124.90625 178.246094 125.097656 178.378906 125.261719 178.554688 C 125.429688 178.730469 125.550781 178.929688 125.636719 179.152344 C 125.71875 179.378906 125.757812 179.609375 125.746094 179.847656 C 125.4375 205.964844 125.460938 205.84375 125.453125 231.855469 C 125.460938 232.09375 125.421875 232.328125 125.335938 232.550781 C 125.25 232.773438 125.121094 232.972656 124.957031 233.144531 C 124.789062 233.316406 124.59375 233.449219 124.371094 233.542969 C 124.152344 233.636719 123.921875 233.683594 123.679688 233.683594 C 123.441406 233.683594 123.207031 233.636719 122.988281 233.542969 C 122.765625 233.449219 122.570312 233.316406 122.40625 233.144531 C 122.238281 232.972656 122.109375 232.773438 122.023438 232.550781 C 121.9375 232.328125 121.898438 232.09375 121.90625 231.855469 C 121.90625 205.824219 121.890625 205.949219 122.199219 179.804688 Z M 122.199219 179.804688 " fill-opacity="1" fill-rule="evenodd"/><path fill="#273a1f" d="M 147.019531 231.808594 C 146.945312 232.027344 146.835938 232.226562 146.683594 232.402344 C 146.535156 232.578125 146.359375 232.71875 146.152344 232.828125 C 145.949219 232.933594 145.730469 233 145.5 233.019531 C 145.269531 233.042969 145.042969 233.019531 144.820312 232.953125 C 144.597656 232.886719 144.394531 232.78125 144.214844 232.636719 C 144.035156 232.492188 143.890625 232.316406 143.777344 232.117188 C 143.664062 231.914062 143.59375 231.699219 143.566406 231.46875 C 143.539062 231.238281 143.554688 231.011719 143.617188 230.789062 C 153.488281 197.90625 154.683594 198.355469 161.445312 175.441406 C 161.511719 175.21875 161.617188 175.011719 161.765625 174.832031 C 161.914062 174.648438 162.089844 174.5 162.296875 174.390625 C 162.503906 174.277344 162.722656 174.210938 162.957031 174.183594 C 163.191406 174.160156 163.421875 174.179688 163.644531 174.246094 C 163.871094 174.3125 164.074219 174.421875 164.257812 174.566406 C 164.441406 174.714844 164.589844 174.890625 164.699219 175.097656 C 164.8125 175.304688 164.882812 175.523438 164.90625 175.757812 C 164.929688 175.988281 164.910156 176.21875 164.84375 176.445312 C 158.085938 199.363281 156.890625 198.910156 147.019531 231.808594 Z M 147.019531 231.808594 " fill-opacity="1" fill-rule="evenodd"/><path fill="#273a1f" d="M 102.40625 234.488281 C 102.1875 234.574219 101.960938 234.617188 101.722656 234.613281 C 101.488281 234.613281 101.261719 234.566406 101.046875 234.472656 C 100.828125 234.382812 100.636719 234.25 100.472656 234.082031 C 100.308594 233.917969 100.183594 233.722656 100.09375 233.503906 C 99.875 232.957031 99.679688 232.449219 99.476562 231.890625 C 98.078125 228.007812 96.449219 221.558594 85.332031 180.910156 C 85.011719 179.742188 84.6875 178.546875 84.347656 177.324219 C 85.585938 177.421875 86.835938 177.464844 88.066406 177.457031 C 88.394531 178.652344 88.714844 179.820312 89.023438 180.960938 C 100.992188 224.710938 101.640625 227.75 103.234375 231.78125 C 103.285156 231.914062 103.339844 232.046875 103.394531 232.191406 C 103.480469 232.410156 103.519531 232.636719 103.515625 232.871094 C 103.515625 233.105469 103.464844 233.328125 103.375 233.542969 C 103.28125 233.757812 103.148438 233.945312 102.984375 234.109375 C 102.816406 234.273438 102.621094 234.398438 102.40625 234.488281 Z M 102.40625 234.488281 " fill-opacity="1" fill-rule="evenodd"/><path fill="#60b1f4" d="M 106.144531 80.125 C 111.058594 89.148438 123.859375 88.957031 128.167969 80.742188 C 128.339844 80.414062 132.730469 83.867188 139.996094 79.976562 C 169.320312 64.273438 97.226562 0.257812 44.730469 63.328125 C 31.335938 79.40625 36.199219 95.457031 50.390625 88.25 C 51.542969 87.660156 52.613281 86.921875 53.765625 86.335938 C 55.453125 88.664062 65.597656 104.738281 77.585938 85.242188 C 79.316406 86.789062 91.914062 98.066406 106.144531 80.117188 Z M 106.144531 80.125 " fill-opacity="1" fill-rule="evenodd"/><path fill="#273a1f" d="M 88.367188 89.269531 C 88.347656 89.039062 88.371094 88.808594 88.441406 88.585938 C 88.507812 88.359375 88.617188 88.15625 88.769531 87.976562 C 88.917969 87.796875 89.097656 87.652344 89.304688 87.542969 C 89.511719 87.433594 89.734375 87.367188 89.96875 87.34375 C 90.203125 87.320312 90.429688 87.34375 90.65625 87.414062 C 90.878906 87.484375 91.082031 87.59375 91.265625 87.742188 C 91.445312 87.890625 91.589844 88.070312 91.699219 88.277344 C 91.808594 88.484375 91.875 88.707031 91.898438 88.9375 C 94.105469 112.339844 95.308594 125.785156 97.292969 148.761719 C 97.3125 148.996094 97.289062 149.222656 97.21875 149.445312 C 97.144531 149.667969 97.035156 149.871094 96.882812 150.050781 C 96.730469 150.230469 96.550781 150.375 96.34375 150.480469 C 96.132812 150.589844 95.914062 150.652344 95.679688 150.671875 C 95.445312 150.691406 95.214844 150.667969 94.992188 150.597656 C 94.769531 150.527344 94.566406 150.414062 94.386719 150.261719 C 94.207031 150.113281 94.0625 149.933594 93.953125 149.722656 C 93.847656 149.515625 93.78125 149.296875 93.761719 149.0625 C 91.777344 126.105469 90.570312 112.660156 88.367188 89.269531 Z M 96.25 178 C 96.222656 177.761719 96.242188 177.527344 96.3125 177.296875 C 96.378906 177.070312 96.488281 176.863281 96.640625 176.675781 C 96.792969 176.492188 96.972656 176.34375 97.1875 176.230469 C 97.398438 176.117188 97.625 176.050781 97.863281 176.03125 C 98.101562 176.011719 98.335938 176.039062 98.5625 176.113281 C 98.792969 176.1875 98.996094 176.304688 99.175781 176.460938 C 99.359375 176.617188 99.5 176.804688 99.605469 177.019531 C 99.710938 177.234375 99.769531 177.460938 99.785156 177.699219 C 100.183594 182.359375 100.609375 187.367188 101.082031 192.777344 C 101.097656 193.007812 101.066406 193.234375 100.992188 193.453125 C 100.917969 193.671875 100.804688 193.867188 100.652344 194.042969 C 100.503906 194.21875 100.324219 194.359375 100.117188 194.460938 C 99.914062 194.566406 99.695312 194.628906 99.464844 194.648438 C 99.234375 194.667969 99.007812 194.644531 98.785156 194.578125 C 98.566406 194.507812 98.363281 194.402344 98.1875 194.253906 C 98.007812 194.109375 97.863281 193.933594 97.75 193.730469 C 97.640625 193.53125 97.570312 193.3125 97.546875 193.082031 C 97.082031 187.671875 96.652344 182.664062 96.25 178 Z M 96.25 178 " fill-opacity="1" fill-rule="evenodd"/><path fill="#273a1f" d="M 108.769531 164.910156 C 108.640625 165.839844 108.164062 166.863281 107.132812 168.238281 C 107.589844 169.515625 107.679688 170.820312 107.40625 172.152344 C 106.9375 174.316406 105.398438 176.195312 102.992188 177.632812 C 99.796875 179.546875 94.992188 180.726562 89.710938 180.929688 C 89.480469 180.941406 89.25 180.949219 89.015625 180.953125 C 87.804688 180.988281 86.574219 180.96875 85.332031 180.902344 C 78.773438 180.550781 72.019531 178.808594 67.140625 175.511719 C 56.960938 168.628906 53.71875 156.804688 54.699219 145.121094 C 55.671875 133.621094 60.773438 122.320312 67.054688 116.265625 C 67.222656 116.105469 67.417969 115.980469 67.640625 115.894531 C 67.859375 115.808594 68.085938 115.769531 68.324219 115.773438 C 68.558594 115.78125 68.785156 115.832031 69 115.925781 C 69.214844 116.019531 69.40625 116.152344 69.570312 116.324219 C 69.730469 116.496094 69.855469 116.691406 69.941406 116.910156 C 70.027344 117.128906 70.066406 117.355469 70.058594 117.589844 C 70.054688 117.828125 70.003906 118.050781 69.910156 118.269531 C 69.8125 118.484375 69.679688 118.671875 69.507812 118.835938 C 63.726562 124.398438 59.128906 134.839844 58.230469 145.421875 C 57.347656 155.832031 60.054688 166.449219 69.132812 172.582031 C 73.230469 175.355469 78.8125 176.878906 84.347656 177.324219 C 85.585938 177.421875 86.835938 177.464844 88.0625 177.457031 C 91.625 177.429688 95.019531 176.949219 97.8125 176.0625 C 102.207031 174.664062 105.207031 172.328125 103.507812 168.699219 C 103.363281 168.390625 103.3125 168.070312 103.355469 167.730469 C 103.394531 167.394531 103.523438 167.09375 103.742188 166.832031 C 104.636719 165.734375 105.167969 165.074219 105.265625 164.410156 C 105.316406 164.074219 105.175781 163.769531 104.984375 163.378906 C 104.636719 162.652344 104.089844 161.785156 103.40625 160.613281 C 103.25 160.34375 103.171875 160.050781 103.167969 159.742188 C 103.164062 159.429688 103.238281 159.140625 103.390625 158.867188 C 103.597656 158.511719 104.914062 156.324219 104.125 154.257812 C 103.804688 153.421875 103.09375 152.648438 101.84375 152.007812 C 99.828125 150.976562 98.507812 150.484375 97.359375 150.441406 C 96.289062 150.402344 95.40625 150.777344 94.230469 151.285156 C 92.945312 151.832031 91.394531 152.5625 89.222656 153.304688 C 89 153.375 88.773438 153.402344 88.542969 153.386719 C 88.308594 153.367188 88.089844 153.304688 87.882812 153.203125 C 87.671875 153.097656 87.492188 152.957031 87.339844 152.785156 C 87.1875 152.609375 87.074219 152.410156 86.996094 152.191406 C 86.921875 151.972656 86.890625 151.746094 86.90625 151.515625 C 86.917969 151.28125 86.976562 151.0625 87.074219 150.851562 C 87.175781 150.644531 87.3125 150.460938 87.484375 150.304688 C 87.65625 150.148438 87.851562 150.03125 88.070312 149.953125 C 90.136719 149.25 91.605469 148.5625 92.820312 148.035156 C 94.566406 147.28125 95.910156 146.84375 97.5 146.90625 C 99.015625 146.964844 100.800781 147.492188 103.460938 148.859375 C 105.699219 150.007812 106.859375 151.496094 107.4375 152.996094 C 108.410156 155.542969 107.5625 158.230469 106.945312 159.648438 C 107.621094 160.796875 108.128906 161.65625 108.425781 162.40625 C 108.773438 163.210938 108.890625 164.046875 108.769531 164.910156 Z M 108.769531 164.910156 " fill-opacity="1" fill-rule="evenodd"/><path fill="#273a1f" d="M 66.601562 154.019531 C 66.375 154.074219 66.148438 154.082031 65.921875 154.046875 C 65.691406 154.011719 65.476562 153.933594 65.28125 153.8125 C 65.082031 153.695312 64.914062 153.542969 64.773438 153.355469 C 64.636719 153.171875 64.539062 152.964844 64.480469 152.742188 C 64.421875 152.519531 64.40625 152.292969 64.4375 152.0625 C 64.46875 151.835938 64.539062 151.621094 64.65625 151.417969 C 64.769531 151.21875 64.917969 151.046875 65.101562 150.90625 C 65.28125 150.761719 65.484375 150.660156 65.707031 150.59375 C 74.222656 148.371094 80.792969 145.09375 85.445312 144.039062 C 89.445312 143.132812 92.273438 143.75 94.085938 146.652344 C 94.210938 146.851562 94.289062 147.066406 94.328125 147.300781 C 94.367188 147.53125 94.359375 147.761719 94.308594 147.988281 C 94.253906 148.21875 94.160156 148.425781 94.023438 148.617188 C 93.886719 148.808594 93.71875 148.964844 93.519531 149.089844 C 93.320312 149.214844 93.105469 149.296875 92.871094 149.335938 C 92.640625 149.371094 92.410156 149.367188 92.183594 149.3125 C 91.953125 149.261719 91.742188 149.167969 91.550781 149.03125 C 91.359375 148.894531 91.203125 148.726562 91.078125 148.527344 C 90.082031 146.9375 88.429688 146.992188 86.234375 147.496094 C 81.605469 148.542969 75.070312 151.824219 66.601562 154.027344 Z M 66.601562 154.019531 " fill-opacity="1" fill-rule="evenodd"/><path fill="#273a1f" d="M 146.554688 116.289062 C 146.558594 116.054688 146.605469 115.832031 146.695312 115.613281 C 146.789062 115.398438 146.917969 115.207031 147.085938 115.042969 C 147.253906 114.878906 147.445312 114.75 147.664062 114.664062 C 147.878906 114.574219 148.105469 114.53125 148.34375 114.535156 C 148.578125 114.535156 148.804688 114.582031 149.019531 114.671875 C 149.238281 114.765625 149.429688 114.894531 149.59375 115.0625 C 149.757812 115.230469 149.886719 115.421875 149.972656 115.640625 C 150.0625 115.855469 150.105469 116.082031 150.101562 116.316406 C 150.085938 118.90625 150.054688 118.835938 150.0625 121.417969 C 150.070312 121.65625 150.03125 121.890625 149.945312 122.113281 C 149.859375 122.335938 149.734375 122.535156 149.566406 122.710938 C 149.402344 122.882812 149.207031 123.015625 148.988281 123.109375 C 148.765625 123.203125 148.535156 123.253906 148.292969 123.253906 C 148.054688 123.253906 147.824219 123.207031 147.601562 123.113281 C 147.378906 123.019531 147.183594 122.890625 147.015625 122.714844 C 146.847656 122.542969 146.722656 122.347656 146.636719 122.121094 C 146.546875 121.898438 146.507812 121.667969 146.515625 121.425781 C 146.515625 118.828125 146.539062 118.894531 146.554688 116.289062 Z M 146.554688 116.289062 " fill-opacity="1" fill-rule="evenodd"/><path fill="#273a1f" d="M 125.125 116.289062 C 125.121094 116.050781 125.160156 115.820312 125.25 115.597656 C 125.335938 115.375 125.464844 115.175781 125.632812 115.003906 C 125.800781 114.832031 125.996094 114.703125 126.21875 114.609375 C 126.441406 114.519531 126.671875 114.472656 126.914062 114.476562 C 127.152344 114.476562 127.382812 114.523438 127.605469 114.621094 C 127.824219 114.714844 128.019531 114.851562 128.183594 115.023438 C 128.351562 115.199219 128.476562 115.398438 128.558594 115.621094 C 128.644531 115.847656 128.683594 116.078125 128.671875 116.316406 C 128.652344 118.90625 128.621094 118.835938 128.632812 121.417969 C 128.625 121.648438 128.574219 121.867188 128.480469 122.078125 C 128.386719 122.285156 128.257812 122.472656 128.09375 122.632812 C 127.929688 122.792969 127.742188 122.914062 127.527344 123 C 127.316406 123.089844 127.09375 123.132812 126.863281 123.132812 C 126.632812 123.132812 126.410156 123.089844 126.199219 123.003906 C 125.984375 122.921875 125.792969 122.796875 125.628906 122.636719 C 125.464844 122.480469 125.332031 122.296875 125.238281 122.085938 C 125.144531 121.875 125.09375 121.65625 125.085938 121.425781 C 125.085938 118.828125 125.109375 118.894531 125.125 116.289062 Z M 125.125 116.289062 " fill-opacity="1" fill-rule="evenodd"/><path fill="#273a1f" d="M 113.949219 127.96875 C 113.722656 128.019531 113.492188 128.027344 113.257812 127.984375 C 113.027344 127.945312 112.8125 127.859375 112.613281 127.734375 C 112.414062 127.609375 112.25 127.449219 112.113281 127.257812 C 111.980469 127.066406 111.886719 126.855469 111.835938 126.625 C 111.785156 126.394531 111.78125 126.164062 111.820312 125.933594 C 111.859375 125.703125 111.945312 125.488281 112.070312 125.289062 C 112.199219 125.09375 112.359375 124.925781 112.550781 124.792969 C 112.742188 124.65625 112.953125 124.566406 113.183594 124.515625 C 116.03125 123.886719 118.78125 123.398438 121.808594 124.367188 C 123.828125 125.015625 125.984375 126.304688 128.351562 128.726562 C 128.515625 128.894531 128.644531 129.085938 128.730469 129.304688 C 128.820312 129.523438 128.859375 129.75 128.859375 129.984375 C 128.855469 130.21875 128.808594 130.445312 128.714844 130.660156 C 128.625 130.875 128.492188 131.066406 128.324219 131.230469 C 128.15625 131.394531 127.964844 131.519531 127.746094 131.605469 C 127.527344 131.695312 127.300781 131.738281 127.0625 131.734375 C 126.828125 131.730469 126.601562 131.683594 126.386719 131.589844 C 126.171875 131.5 125.980469 131.367188 125.816406 131.199219 C 123.957031 129.304688 122.304688 128.242188 120.722656 127.742188 C 118.347656 126.976562 116.179688 127.476562 113.949219 127.96875 Z M 113.949219 127.96875 " fill-opacity="1" fill-rule="evenodd"/><path fill="#1781c9" d="M 56.660156 80.355469 C 56.621094 80.589844 56.542969 80.8125 56.417969 81.015625 C 56.292969 81.21875 56.132812 81.390625 55.9375 81.53125 C 55.742188 81.667969 55.527344 81.765625 55.292969 81.816406 C 55.058594 81.871094 54.824219 81.875 54.589844 81.832031 C 54.351562 81.789062 54.136719 81.703125 53.933594 81.574219 C 53.734375 81.441406 53.566406 81.277344 53.433594 81.078125 C 53.300781 80.878906 53.210938 80.664062 53.164062 80.429688 C 53.117188 80.195312 53.117188 79.960938 53.167969 79.726562 C 55.617188 66.140625 66.308594 53.648438 67.960938 51.730469 C 68.117188 51.558594 68.300781 51.425781 68.507812 51.324219 C 68.714844 51.226562 68.933594 51.167969 69.164062 51.15625 C 69.394531 51.140625 69.617188 51.171875 69.835938 51.246094 C 70.054688 51.320312 70.253906 51.429688 70.425781 51.582031 C 70.601562 51.730469 70.742188 51.910156 70.847656 52.113281 C 70.953125 52.316406 71.015625 52.535156 71.035156 52.765625 C 71.054688 52.992188 71.03125 53.21875 70.964844 53.4375 C 70.898438 53.65625 70.792969 53.855469 70.648438 54.035156 C 69.089844 55.84375 58.960938 67.558594 56.65625 80.355469 Z M 56.660156 80.355469 " fill-opacity="1" fill-rule="evenodd"/><path fill="#1781c9" d="M 83.796875 43.71875 C 83.894531 43.503906 84.03125 43.320312 84.203125 43.164062 C 84.375 43.003906 84.570312 42.882812 84.789062 42.804688 C 85.011719 42.722656 85.238281 42.6875 85.472656 42.695312 C 85.703125 42.703125 85.929688 42.757812 86.140625 42.855469 C 86.355469 42.949219 86.539062 43.085938 86.699219 43.253906 C 86.859375 43.425781 86.980469 43.621094 87.0625 43.839844 C 87.148438 44.058594 87.183594 44.285156 87.179688 44.515625 C 87.171875 44.75 87.121094 44.972656 87.023438 45.1875 C 81.171875 57.992188 80.707031 60.179688 78.878906 75.570312 C 78.835938 75.789062 78.753906 75.992188 78.636719 76.183594 C 78.515625 76.371094 78.367188 76.53125 78.183594 76.664062 C 78.003906 76.796875 77.804688 76.890625 77.589844 76.949219 C 77.371094 77.003906 77.152344 77.019531 76.929688 76.996094 C 76.707031 76.96875 76.496094 76.902344 76.300781 76.796875 C 76.101562 76.691406 75.929688 76.554688 75.785156 76.382812 C 75.640625 76.210938 75.53125 76.019531 75.460938 75.808594 C 75.386719 75.597656 75.355469 75.378906 75.367188 75.15625 C 77.257812 59.234375 77.753906 56.96875 83.804688 43.722656 Z M 83.796875 43.71875 " fill-opacity="1" fill-rule="evenodd"/><path fill="#1781c9" d="M 95.082031 53.964844 C 94.964844 53.761719 94.894531 53.542969 94.863281 53.308594 C 94.835938 53.074219 94.855469 52.84375 94.917969 52.617188 C 94.980469 52.390625 95.085938 52.1875 95.234375 52 C 95.378906 51.816406 95.554688 51.667969 95.757812 51.550781 C 95.964844 51.4375 96.183594 51.363281 96.417969 51.335938 C 96.652344 51.308594 96.882812 51.328125 97.109375 51.390625 C 97.335938 51.457031 97.542969 51.558594 97.726562 51.707031 C 97.914062 51.851562 98.0625 52.027344 98.179688 52.230469 C 101.625 58.355469 103.675781 65.238281 105.585938 70.597656 C 105.664062 70.820312 105.695312 71.046875 105.683594 71.28125 C 105.671875 71.515625 105.617188 71.738281 105.515625 71.949219 C 105.414062 72.160156 105.277344 72.347656 105.101562 72.503906 C 104.925781 72.660156 104.730469 72.777344 104.507812 72.855469 C 104.289062 72.933594 104.058594 72.96875 103.824219 72.957031 C 103.589844 72.945312 103.367188 72.886719 103.15625 72.789062 C 102.941406 72.6875 102.757812 72.550781 102.601562 72.375 C 102.441406 72.203125 102.324219 72.003906 102.246094 71.785156 C 100.386719 66.585938 98.425781 59.902344 95.089844 53.964844 Z M 95.082031 53.964844 " fill-opacity="1" fill-rule="evenodd"/><path fill="#1781c9" d="M 103.328125 44.058594 C 103.144531 43.914062 103 43.742188 102.882812 43.539062 C 102.769531 43.339844 102.699219 43.121094 102.671875 42.894531 C 102.640625 42.664062 102.65625 42.4375 102.71875 42.210938 C 102.777344 41.988281 102.878906 41.785156 103.019531 41.601562 C 103.160156 41.417969 103.328125 41.265625 103.53125 41.148438 C 103.730469 41.03125 103.945312 40.953125 104.175781 40.921875 C 104.402344 40.886719 104.632812 40.898438 104.855469 40.953125 C 105.082031 41.007812 105.289062 41.105469 105.476562 41.242188 C 106.976562 42.382812 126.363281 55.730469 129.796875 72.207031 C 129.835938 72.433594 129.832031 72.660156 129.785156 72.886719 C 129.738281 73.113281 129.648438 73.320312 129.519531 73.511719 C 129.390625 73.703125 129.230469 73.859375 129.039062 73.988281 C 128.847656 74.117188 128.636719 74.207031 128.410156 74.253906 C 128.1875 74.300781 127.960938 74.300781 127.734375 74.261719 C 127.503906 74.21875 127.292969 74.136719 127.101562 74.015625 C 126.90625 73.890625 126.742188 73.738281 126.605469 73.550781 C 126.472656 73.363281 126.378906 73.15625 126.324219 72.933594 C 125.050781 66.835938 121.378906 61.238281 117.371094 56.617188 C 111.199219 49.5 104.183594 44.707031 103.332031 44.058594 Z M 103.328125 44.058594 " fill-opacity="1" fill-rule="evenodd"/><path fill="#273a1f" d="M 5.570312 139.285156 C 2.601562 153.707031 6.730469 165.933594 16.65625 172.007812 C 17.519531 172.53125 18.414062 173 19.339844 173.40625 C 21.382812 162.335938 26.589844 152.324219 31.96875 151.214844 C 33.671875 150.859375 36.824219 151.171875 38.851562 157.140625 C 42.390625 167.550781 38.515625 172.613281 35.890625 174.703125 C 32.238281 177.617188 26.722656 178.257812 21.242188 176.675781 C 20.832031 179.828125 20.746094 182.988281 20.988281 186.15625 C 21.75 195.542969 26.011719 206.769531 41.53125 208.621094 C 44.214844 201.5 48.464844 195.84375 50.480469 194.5625 C 55.125 191.605469 57.765625 192.730469 58.914062 193.691406 C 60.957031 195.339844 61.425781 198.636719 60.113281 202.109375 C 58.332031 206.789062 53.25 211.65625 44.3125 211.28125 C 43.929688 211.261719 43.550781 211.242188 43.175781 211.214844 C 41.9375 215.082031 41.253906 219.316406 41.808594 223.414062 C 42.921875 231.625 48.78125 237.371094 59.171875 240.589844 C 59.714844 240.828125 60.175781 241.46875 59.980469 242.101562 C 59.933594 242.257812 59.859375 242.398438 59.757812 242.523438 C 59.652344 242.648438 59.53125 242.746094 59.386719 242.824219 C 59.246094 242.898438 59.09375 242.945312 58.933594 242.960938 C 58.769531 242.972656 58.613281 242.957031 58.460938 242.910156 C 47.070312 239.457031 40.648438 232.976562 39.394531 223.742188 C 38.8125 219.457031 39.472656 215.035156 40.730469 210.960938 C 23.078125 208.613281 19.253906 194.734375 18.558594 186.339844 C 18.304688 182.832031 18.429688 179.335938 18.9375 175.851562 C 17.703125 175.351562 16.515625 174.753906 15.378906 174.058594 C 4.554688 167.429688 -0.00390625 154.242188 3.195312 138.777344 C 3.230469 138.617188 3.289062 138.472656 3.382812 138.335938 C 3.472656 138.203125 3.585938 138.089844 3.722656 138.003906 C 3.859375 137.914062 4.003906 137.855469 4.164062 137.824219 C 4.324219 137.792969 4.484375 137.792969 4.640625 137.828125 C 4.695312 137.839844 4.742188 137.855469 4.789062 137.871094 C 5.082031 137.972656 5.300781 138.160156 5.449219 138.429688 C 5.601562 138.699219 5.640625 138.984375 5.570312 139.285156 Z M 34.371094 172.808594 C 38.042969 169.882812 38.8125 164.59375 36.546875 157.917969 C 35.796875 155.710938 34.480469 153.191406 32.460938 153.589844 C 28.605469 154.386719 23.511719 163.414062 21.609375 174.25 C 26.4375 175.746094 31.257812 175.289062 34.371094 172.808594 Z M 44.414062 208.863281 C 52.054688 209.1875 56.359375 205.152344 57.835938 201.257812 C 58.742188 198.871094 58.554688 196.539062 57.382812 195.585938 C 56.28125 194.691406 54.238281 195.066406 51.804688 196.617188 C 50.230469 197.617188 46.519531 202.53125 44.039062 208.839844 C 44.15625 208.851562 44.285156 208.859375 44.414062 208.863281 Z M 44.414062 208.863281 " fill-opacity="1" fill-rule="nonzero"/></svg>