<svg xmlns="http://www.w3.org/2000/svg" xmlns:xlink="http://www.w3.org/1999/xlink" width="55" zoomAndPan="magnify" viewBox="0 0 41.25 41.250001" height="55" preserveAspectRatio="xMidYMid meet" version="1.0"><defs><clipPath id="dd91c8d649"><path d="M 0 14 L 12 14 L 12 39.777344 L 0 39.777344 Z M 0 14 " clip-rule="nonzero"/></clipPath><clipPath id="997e3f725f"><path d="M 14 0 L 26 0 L 26 39.777344 L 14 39.777344 Z M 14 0 " clip-rule="nonzero"/></clipPath><clipPath id="929fca92b4"><path d="M 28 7 L 39.777344 7 L 39.777344 39.777344 L 28 39.777344 Z M 28 7 " clip-rule="nonzero"/></clipPath><clipPath id="1a5d7b9740"><path d="M 0 14 L 12 14 L 12 39.777344 L 0 39.777344 Z M 0 14 " clip-rule="nonzero"/></clipPath><clipPath id="35823e1165"><path d="M 14 0 L 26 0 L 26 39.777344 L 14 39.777344 Z M 14 0 " clip-rule="nonzero"/></clipPath><clipPath id="a667f60fc8"><path d="M 28 7 L 39.777344 7 L 39.777344 39.777344 L 28 39.777344 Z M 28 7 " clip-rule="nonzero"/></clipPath></defs><g clip-path="url(#dd91c8d649)"><path fill="currentColor" d="M 7.101562 14.207031 L 4.261719 14.207031 C 1.847656 14.207031 0 16.054688 0 18.46875 L 0 35.515625 C 0 37.929688 1.847656 39.777344 4.261719 39.777344 L 7.101562 39.777344 C 9.519531 39.777344 11.363281 37.929688 11.363281 35.515625 L 11.363281 18.46875 C 11.363281 16.054688 9.519531 14.207031 7.101562 14.207031 Z M 7.101562 14.207031 " fill-opacity="1" fill-rule="nonzero"/></g><g clip-path="url(#997e3f725f)"><path fill="currentColor" d="M 21.308594 0 L 18.46875 0 C 16.054688 0 14.207031 1.847656 14.207031 4.261719 L 14.207031 35.515625 C 14.207031 37.929688 16.054688 39.777344 18.46875 39.777344 L 21.308594 39.777344 C 23.722656 39.777344 25.570312 37.929688 25.570312 35.515625 L 25.570312 4.261719 C 25.570312 1.847656 23.722656 0 21.308594 0 Z M 21.308594 0 " fill-opacity="1" fill-rule="nonzero"/></g><g clip-path="url(#929fca92b4)"><path fill="currentColor" d="M 35.515625 7.101562 L 32.671875 7.101562 C 30.257812 7.101562 28.410156 8.949219 28.410156 11.363281 L 28.410156 35.515625 C 28.410156 37.929688 30.257812 39.777344 32.671875 39.777344 L 35.515625 39.777344 C 37.929688 39.777344 39.777344 37.929688 39.777344 35.515625 L 39.777344 11.363281 C 39.777344 8.949219 37.929688 7.101562 35.515625 7.101562 Z M 35.515625 7.101562 " fill-opacity="1" fill-rule="nonzero"/></g><g clip-path="url(#1a5d7b9740)"><path fill="currentColor" d="M 7.101562 14.207031 L 4.261719 14.207031 C 1.847656 14.207031 0 16.054688 0 18.46875 L 0 35.515625 C 0 37.929688 1.847656 39.777344 4.261719 39.777344 L 7.101562 39.777344 C 9.519531 39.777344 11.363281 37.929688 11.363281 35.515625 L 11.363281 18.46875 C 11.363281 16.054688 9.519531 14.207031 7.101562 14.207031 Z M 7.101562 14.207031 " fill-opacity="1" fill-rule="nonzero"/></g><g clip-path="url(#35823e1165)"><path fill="currentColor" d="M 21.308594 0 L 18.46875 0 C 16.054688 0 14.207031 1.847656 14.207031 4.261719 L 14.207031 35.515625 C 14.207031 37.929688 16.054688 39.777344 18.46875 39.777344 L 21.308594 39.777344 C 23.722656 39.777344 25.570312 37.929688 25.570312 35.515625 L 25.570312 4.261719 C 25.570312 1.847656 23.722656 0 21.308594 0 Z M 21.308594 0 " fill-opacity="1" fill-rule="nonzero"/></g><g clip-path="url(#a667f60fc8)"><path fill="currentColor" d="M 35.515625 7.101562 L 32.671875 7.101562 C 30.257812 7.101562 28.410156 8.949219 28.410156 11.363281 L 28.410156 35.515625 C 28.410156 37.929688 30.257812 39.777344 32.671875 39.777344 L 35.515625 39.777344 C 37.929688 39.777344 39.777344 37.929688 39.777344 35.515625 L 39.777344 11.363281 C 39.777344 8.949219 37.929688 7.101562 35.515625 7.101562 Z M 35.515625 7.101562 " fill-opacity="1" fill-rule="nonzero"/></g></svg>