<svg xmlns="http://www.w3.org/2000/svg" xmlns:xlink="http://www.w3.org/1999/xlink" width="54" zoomAndPan="magnify" viewBox="0 0 40.5 41.25" height="55" preserveAspectRatio="xMidYMid meet" version="1.0"><defs><clipPath id="1bff76aff1"><path d="M 0.117188 21 L 39.894531 21 L 39.894531 39.777344 L 0.117188 39.777344 Z M 0.117188 21 " clip-rule="nonzero"/></clipPath><clipPath id="31d3b94725"><path d="M 0.117188 21 L 39.894531 21 L 39.894531 39.777344 L 0.117188 39.777344 Z M 0.117188 21 " clip-rule="nonzero"/></clipPath></defs><path fill="currentColor" d="M 30.84375 10.6875 C 30.84375 11.390625 30.773438 12.085938 30.632812 12.773438 C 30.496094 13.460938 30.289062 14.128906 30.019531 14.777344 C 29.746094 15.425781 29.410156 16.042969 29.015625 16.628906 C 28.621094 17.210938 28.171875 17.75 27.667969 18.246094 C 27.164062 18.742188 26.617188 19.1875 26.027344 19.574219 C 25.433594 19.964844 24.808594 20.296875 24.152344 20.5625 C 23.496094 20.832031 22.816406 21.035156 22.117188 21.171875 C 21.421875 21.308594 20.714844 21.378906 20.003906 21.378906 C 19.292969 21.378906 18.589844 21.308594 17.890625 21.171875 C 17.191406 21.035156 16.515625 20.832031 15.855469 20.5625 C 15.199219 20.296875 14.574219 19.964844 13.984375 19.574219 C 13.390625 19.1875 12.84375 18.742188 12.339844 18.246094 C 11.835938 17.75 11.386719 17.210938 10.992188 16.628906 C 10.597656 16.042969 10.261719 15.425781 9.992188 14.777344 C 9.71875 14.128906 9.511719 13.460938 9.375 12.773438 C 9.234375 12.085938 9.164062 11.390625 9.164062 10.6875 C 9.164062 9.988281 9.234375 9.292969 9.375 8.601562 C 9.511719 7.914062 9.71875 7.246094 9.992188 6.597656 C 10.261719 5.949219 10.597656 5.332031 10.992188 4.75 C 11.386719 4.167969 11.835938 3.625 12.339844 3.128906 C 12.84375 2.632812 13.390625 2.191406 13.984375 1.800781 C 14.574219 1.410156 15.199219 1.082031 15.855469 0.8125 C 16.515625 0.546875 17.191406 0.34375 17.890625 0.207031 C 18.589844 0.0703125 19.292969 0 20.003906 0 C 20.714844 0 21.421875 0.0703125 22.117188 0.207031 C 22.816406 0.34375 23.496094 0.546875 24.152344 0.8125 C 24.808594 1.082031 25.433594 1.410156 26.027344 1.800781 C 26.617188 2.191406 27.164062 2.632812 27.667969 3.128906 C 28.171875 3.625 28.621094 4.167969 29.015625 4.75 C 29.410156 5.332031 29.746094 5.949219 30.019531 6.597656 C 30.289062 7.246094 30.496094 7.914062 30.632812 8.601562 C 30.773438 9.292969 30.84375 9.988281 30.84375 10.6875 Z M 30.84375 10.6875 " fill-opacity="1" fill-rule="nonzero"/><g clip-path="url(#1bff76aff1)"><path fill="currentColor" d="M 39.847656 39.777344 C 39.847656 31.214844 34.238281 23.984375 26.527344 21.324219 C 24.640625 22.492188 22.378906 23.132812 20.003906 23.132812 C 17.632812 23.132812 15.367188 22.441406 13.480469 21.324219 C 5.714844 23.984375 0.160156 31.214844 0.160156 39.777344 Z M 39.847656 39.777344 " fill-opacity="1" fill-rule="nonzero"/></g><path fill="currentColor" d="M 30.84375 10.6875 C 30.84375 11.390625 30.773438 12.085938 30.632812 12.773438 C 30.496094 13.460938 30.289062 14.128906 30.019531 14.777344 C 29.746094 15.425781 29.410156 16.042969 29.015625 16.628906 C 28.621094 17.210938 28.171875 17.75 27.667969 18.246094 C 27.164062 18.742188 26.617188 19.1875 26.027344 19.574219 C 25.433594 19.964844 24.808594 20.296875 24.152344 20.5625 C 23.496094 20.832031 22.816406 21.035156 22.117188 21.171875 C 21.421875 21.308594 20.714844 21.378906 20.003906 21.378906 C 19.292969 21.378906 18.589844 21.308594 17.890625 21.171875 C 17.191406 21.035156 16.515625 20.832031 15.855469 20.5625 C 15.199219 20.296875 14.574219 19.964844 13.984375 19.574219 C 13.390625 19.1875 12.84375 18.742188 12.339844 18.246094 C 11.835938 17.75 11.386719 17.210938 10.992188 16.628906 C 10.597656 16.042969 10.261719 15.425781 9.992188 14.777344 C 9.71875 14.128906 9.511719 13.460938 9.375 12.773438 C 9.234375 12.085938 9.164062 11.390625 9.164062 10.6875 C 9.164062 9.988281 9.234375 9.292969 9.375 8.601562 C 9.511719 7.914062 9.71875 7.246094 9.992188 6.597656 C 10.261719 5.949219 10.597656 5.332031 10.992188 4.75 C 11.386719 4.167969 11.835938 3.625 12.339844 3.128906 C 12.84375 2.632812 13.390625 2.191406 13.984375 1.800781 C 14.574219 1.410156 15.199219 1.082031 15.855469 0.8125 C 16.515625 0.546875 17.191406 0.34375 17.890625 0.207031 C 18.589844 0.0703125 19.292969 0 20.003906 0 C 20.714844 0 21.421875 0.0703125 22.117188 0.207031 C 22.816406 0.34375 23.496094 0.546875 24.152344 0.8125 C 24.808594 1.082031 25.433594 1.410156 26.027344 1.800781 C 26.617188 2.191406 27.164062 2.632812 27.667969 3.128906 C 28.171875 3.625 28.621094 4.167969 29.015625 4.75 C 29.410156 5.332031 29.746094 5.949219 30.019531 6.597656 C 30.289062 7.246094 30.496094 7.914062 30.632812 8.601562 C 30.773438 9.292969 30.84375 9.988281 30.84375 10.6875 Z M 30.84375 10.6875 " fill-opacity="1" fill-rule="nonzero"/><g clip-path="url(#31d3b94725)"><path fill="currentColor" d="M 39.847656 39.777344 C 39.847656 31.214844 34.238281 23.984375 26.527344 21.324219 C 24.640625 22.492188 22.378906 23.132812 20.003906 23.132812 C 17.632812 23.132812 15.367188 22.441406 13.480469 21.324219 C 5.714844 23.984375 0.160156 31.214844 0.160156 39.777344 Z M 39.847656 39.777344 " fill-opacity="1" fill-rule="nonzero"/></g></svg>