<svg xmlns="http://www.w3.org/2000/svg" xmlns:xlink="http://www.w3.org/1999/xlink"  zoomAndPan="magnify" viewBox="0 0 18 18" preserveAspectRatio="xMidYMid meet" version="1.0"><defs><clipPath id="78331cf141"><path d="M 0 0.117188 L 17.761719 0.117188 L 17.761719 17.140625 L 0 17.140625 Z M 0 0.117188 " clip-rule="nonzero"/></clipPath><clipPath id="30f2882f2e"><path d="M 5.027344 6 L 13.167969 6 L 13.167969 10 L 5.027344 10 Z M 5.027344 6 " clip-rule="nonzero"/></clipPath><clipPath id="3fc6641e7d"><path d="M 5.027344 5.777344 L 13.167969 5.777344 L 13.167969 9 L 5.027344 9 Z M 5.027344 5.777344 " clip-rule="nonzero"/></clipPath><clipPath id="15ad8f83fc"><path d="M 5.027344 9 L 13 9 L 13 11.699219 L 5.027344 11.699219 Z M 5.027344 9 " clip-rule="nonzero"/></clipPath></defs><g clip-path="url(#78331cf141)"><path fill="currentColor" d="M 9.792969 1.9375 C 9.320312 1.695312 9 1.242188 8.636719 0.859375 C 8.453125 0.667969 8.25 0.488281 8.015625 0.363281 C 7.78125 0.242188 7.507812 0.175781 7.246094 0.222656 C 7.058594 0.253906 6.882812 0.34375 6.726562 0.457031 C 6.574219 0.574219 6.441406 0.714844 6.316406 0.863281 C 6.070312 1.15625 5.847656 1.484375 5.53125 1.699219 C 5.296875 1.863281 5.019531 1.953125 4.738281 2.003906 C 4.460938 2.054688 4.175781 2.070312 3.890625 2.085938 C 3.609375 2.101562 3.324219 2.121094 3.046875 2.183594 C 2.769531 2.242188 2.496094 2.351562 2.273438 2.53125 C 1.90625 2.824219 1.710938 3.28125 1.578125 3.730469 C 1.441406 4.183594 1.359375 4.652344 1.148438 5.074219 C 0.953125 5.476562 0.652344 5.816406 0.410156 6.191406 C 0.285156 6.378906 0.179688 6.574219 0.105469 6.785156 C 0.03125 6.996094 -0.00390625 7.222656 0.0234375 7.445312 C 0.0546875 7.6875 0.15625 7.917969 0.292969 8.121094 C 0.429688 8.324219 0.601562 8.5 0.773438 8.671875 C 1.121094 9.015625 1.503906 9.355469 1.683594 9.8125 C 1.800781 10.113281 1.816406 10.445312 1.78125 10.765625 C 1.746094 11.085938 1.65625 11.398438 1.5625 11.707031 C 1.40625 12.238281 1.230469 12.769531 1.1875 13.320312 C 1.140625 13.875 1.234375 14.457031 1.5625 14.902344 C 1.886719 15.339844 2.398438 15.597656 2.921875 15.734375 C 3.445312 15.871094 3.988281 15.902344 4.523438 15.96875 C 5.769531 16.125 6.980469 16.488281 8.195312 16.796875 C 9.113281 17.03125 10.046875 17.242188 10.996094 17.207031 C 11.941406 17.171875 12.90625 16.871094 13.582031 16.207031 C 14.144531 15.65625 14.472656 14.890625 15.0625 14.371094 C 15.480469 14 16.003906 13.777344 16.496094 13.511719 C 16.742188 13.378906 16.980469 13.234375 17.195312 13.058594 C 17.410156 12.878906 17.601562 12.664062 17.726562 12.417969 C 17.933594 12.011719 17.960938 11.527344 17.871094 11.078125 C 17.777344 10.632812 17.570312 10.214844 17.324219 9.832031 C 16.835938 9.058594 16.183594 8.367188 15.890625 7.503906 C 15.722656 7.007812 15.683594 6.476562 15.679688 5.953125 C 15.675781 5.429688 15.710938 4.90625 15.691406 4.382812 C 15.671875 3.859375 15.589844 3.328125 15.371094 2.851562 C 15.152344 2.378906 14.777344 1.957031 14.292969 1.761719 C 13.9375 1.613281 13.542969 1.59375 13.160156 1.640625 C 12.78125 1.683594 12.410156 1.792969 12.039062 1.894531 C 11.671875 2 11.296875 2.097656 10.914062 2.128906 C 10.53125 2.15625 10.136719 2.113281 9.792969 1.9375 Z M 9.792969 1.9375 " fill-opacity="1" fill-rule="nonzero"/></g><g clip-path="url(#30f2882f2e)"><path fill="#ffffff" d="M 12.675781 6.375 C 12.570312 6.242188 12.441406 6.132812 12.308594 6.03125 C 11.242188 6.386719 10.1875 6.75 9.121094 7.101562 C 9.121094 7.101562 9.121094 7.113281 9.121094 7.113281 C 9.121094 7.113281 9.121094 7.101562 9.121094 7.101562 C 9.121094 7.101562 9.109375 7.101562 9.109375 7.101562 C 8.941406 7.046875 8.777344 6.992188 8.609375 6.9375 C 8.5625 6.925781 8.515625 6.902344 8.46875 6.894531 C 7.613281 6.605469 6.761719 6.320312 5.90625 6.03125 C 5.765625 6.132812 5.644531 6.253906 5.539062 6.375 C 5.277344 6.695312 5.125 7.089844 5.125 7.519531 C 5.125 8.558594 6.023438 9.394531 7.140625 9.394531 C 7.96875 9.394531 8.679688 8.933594 8.988281 8.269531 C 9.035156 8.160156 9.085938 8.050781 9.109375 7.929688 C 9.132812 8.050781 9.179688 8.160156 9.226562 8.261719 C 9.535156 8.921875 10.246094 9.394531 11.078125 9.394531 C 12.191406 9.394531 13.09375 8.558594 13.09375 7.519531 C 13.09375 7.078125 12.9375 6.683594 12.675781 6.375 Z M 12.675781 6.375 " fill-opacity="1" fill-rule="nonzero"/></g><g clip-path="url(#3fc6641e7d)"><path fill="#000000" d="M 12.878906 6.296875 C 12.808594 6.320312 12.75 6.339844 12.675781 6.363281 C 12 6.59375 11.3125 6.828125 10.636719 7.058594 C 10.851562 7.222656 10.992188 7.476562 10.992188 7.753906 C 10.992188 8.25 10.566406 8.65625 10.019531 8.65625 C 9.6875 8.65625 9.394531 8.503906 9.226562 8.269531 C 9.179688 8.203125 9.144531 8.136719 9.109375 8.0625 C 9.085938 8.136719 9.035156 8.214844 8.988281 8.28125 C 8.8125 8.511719 8.527344 8.667969 8.195312 8.667969 C 7.660156 8.667969 7.222656 8.269531 7.222656 7.765625 C 7.222656 7.488281 7.363281 7.234375 7.578125 7.070312 C 6.902344 6.835938 6.214844 6.605469 5.539062 6.375 C 5.46875 6.351562 5.382812 6.332031 5.3125 6.296875 C 5.027344 6.199219 5.171875 5.777344 5.46875 5.878906 C 5.609375 5.933594 5.765625 5.976562 5.90625 6.03125 C 6.761719 6.320312 7.613281 6.605469 8.457031 6.882812 C 8.503906 6.894531 8.550781 6.914062 8.597656 6.925781 C 8.765625 6.980469 8.929688 7.035156 9.097656 7.089844 C 9.097656 7.089844 9.109375 7.089844 9.109375 7.089844 C 9.109375 7.089844 9.109375 7.089844 9.121094 7.089844 C 10.1875 6.738281 11.242188 6.375 12.308594 6.023438 C 12.453125 5.976562 12.59375 5.921875 12.738281 5.878906 C 13.019531 5.789062 13.164062 6.210938 12.878906 6.296875 Z M 12.878906 6.296875 " fill-opacity="1" fill-rule="nonzero"/></g><g clip-path="url(#15ad8f83fc)"><path fill="#000000" d="M 12.417969 11.480469 C 12.050781 11.082031 11.609375 10.761719 11.125 10.519531 C 10.269531 10.101562 9.261719 9.945312 8.3125 10.125 C 7.351562 10.300781 6.476562 10.761719 5.824219 11.433594 C 5.621094 11.644531 5.289062 11.324219 5.492188 11.117188 C 5.882812 10.707031 6.367188 10.355469 6.902344 10.113281 C 7.863281 9.660156 8.964844 9.503906 10.019531 9.703125 C 11.078125 9.890625 12.050781 10.421875 12.761719 11.183594 C 12.960938 11.390625 12.617188 11.699219 12.417969 11.480469 Z M 12.417969 11.480469 " fill-opacity="1" fill-rule="nonzero"/></g></svg>